<svg width="1440" height="4729" viewBox="0 0 1440 4729" fill="none" xmlns="http://www.w3.org/2000/svg">
<path d="M0 0H1440V4729H0V0Z" fill="url(#paint0_linear_197_233)"/>
<path d="M1375.2 516.79L1375.12 520.966L1378.24 519.657L1375.87 522.544L1378.8 524.423L1375.52 524.331L1376.55 528.298L1374.28 525.279L1372.8 529.01L1372.88 524.833L1369.76 526.143L1372.13 523.255L1369.2 521.377L1372.48 521.469L1371.45 517.502L1373.72 520.521L1375.2 516.79Z" fill="#FFFFFA"/>
<ellipse cx="2.63917" cy="3.26143" rx="2.63917" ry="3.26143" transform="matrix(0.953193 0.302363 -0.192314 0.981333 1372.11 518.901)" fill="#FFFFFA"/>
<ellipse cx="4.00724" cy="5.09741" rx="4.00724" ry="5.09741" transform="matrix(0.999731 0.023212 -0.0143427 0.999897 1370.07 517.71)" fill="#D9D9D9" fill-opacity="0.24"/>
<path d="M113.399 214.248L113.374 215.64L114.414 215.204L113.623 216.166L114.6 216.793L113.506 216.762L113.849 218.084L113.093 217.078L112.6 218.321L112.625 216.929L111.585 217.366L112.376 216.403L111.399 215.777L112.493 215.808L112.15 214.486L112.906 215.492L113.399 214.248Z" fill="#FFFFFA"/>
<ellipse cx="0.879723" cy="1.08714" rx="0.879723" ry="1.08714" transform="matrix(0.953193 0.302363 -0.192314 0.981333 112.37 214.952)" fill="#FFFFFA"/>
<ellipse cx="1.33575" cy="1.69914" rx="1.33575" ry="1.69914" transform="matrix(0.999731 0.023212 -0.0143427 0.999897 111.689 214.555)" fill="#D9D9D9" fill-opacity="0.24"/>
<path d="M67.7993 340.075L67.7811 341.119L68.5606 340.792L67.9674 341.514L68.7006 341.983L67.8799 341.96L68.1372 342.952L67.5698 342.197L67.2006 343.13L67.2188 342.086L66.4393 342.413L67.0325 341.691L66.2993 341.222L67.12 341.245L66.8626 340.253L67.4301 341.008L67.7993 340.075Z" fill="#FFFFFA"/>
<ellipse cx="0.659793" cy="0.815358" rx="0.659793" ry="0.815358" transform="matrix(0.953193 0.302363 -0.192314 0.981333 67.0283 340.603)" fill="#FFFFFA"/>
<ellipse cx="1.00181" cy="1.27435" rx="1.00181" ry="1.27435" transform="matrix(0.999731 0.023212 -0.0143427 0.999897 66.5166 340.305)" fill="#D9D9D9" fill-opacity="0.24"/>
<path d="M223.399 580.66L223.374 582.052L224.414 581.615L223.623 582.578L224.6 583.204L223.506 583.173L223.849 584.496L223.093 583.489L222.6 584.733L222.625 583.341L221.585 583.777L222.376 582.815L221.399 582.188L222.493 582.219L222.15 580.897L222.906 581.903L223.399 580.66Z" fill="#FFFFFA"/>
<ellipse cx="0.879723" cy="1.08714" rx="0.879723" ry="1.08714" transform="matrix(0.953193 0.302363 -0.192314 0.981333 222.37 581.363)" fill="#FFFFFA"/>
<ellipse cx="1.33575" cy="1.69914" rx="1.33575" ry="1.69914" transform="matrix(0.999731 0.023212 -0.0143427 0.999897 221.689 580.966)" fill="#D9D9D9" fill-opacity="0.24"/>
<path d="M159.399 656.995L159.374 658.388L160.414 657.951L159.623 658.914L160.6 659.54L159.506 659.509L159.849 660.831L159.093 659.825L158.6 661.069L158.625 659.677L157.585 660.113L158.376 659.151L157.399 658.524L158.493 658.555L158.15 657.233L158.906 658.239L159.399 656.995Z" fill="#FFFFFA"/>
<ellipse cx="0.879723" cy="1.08714" rx="0.879723" ry="1.08714" transform="matrix(0.953193 0.302363 -0.192314 0.981333 158.37 657.699)" fill="#FFFFFA"/>
<ellipse cx="1.33575" cy="1.69914" rx="1.33575" ry="1.69914" transform="matrix(0.999731 0.023212 -0.0143427 0.999897 157.689 657.302)" fill="#D9D9D9" fill-opacity="0.24"/>
<path d="M629.799 462.212L629.781 463.256L630.561 462.929L629.967 463.651L630.701 464.121L629.88 464.097L630.137 465.089L629.57 464.334L629.201 465.267L629.219 464.223L628.439 464.551L629.032 463.829L628.299 463.359L629.12 463.382L628.863 462.39L629.43 463.145L629.799 462.212Z" fill="#FFFFFA"/>
<ellipse cx="0.659793" cy="0.815358" rx="0.659793" ry="0.815358" transform="matrix(0.953193 0.302363 -0.192314 0.981333 629.028 462.74)" fill="#FFFFFA"/>
<ellipse cx="1.00181" cy="1.27435" rx="1.00181" ry="1.27435" transform="matrix(0.999731 0.023212 -0.0143427 0.999897 628.517 462.442)" fill="#D9D9D9" fill-opacity="0.24"/>
<path d="M845.799 803.178L845.781 804.223L846.561 803.895L845.967 804.617L846.701 805.087L845.88 805.064L846.137 806.055L845.57 805.301L845.201 806.234L845.219 805.189L844.439 805.517L845.032 804.795L844.299 804.325L845.12 804.348L844.863 803.357L845.43 804.111L845.799 803.178Z" fill="#FFFFFA"/>
<ellipse cx="0.659793" cy="0.815358" rx="0.659793" ry="0.815358" transform="matrix(0.953193 0.302363 -0.192314 0.981333 845.028 803.706)" fill="#FFFFFA"/>
<ellipse cx="1.00181" cy="1.27435" rx="1.00181" ry="1.27435" transform="matrix(0.999731 0.023212 -0.0143427 0.999897 844.517 803.409)" fill="#D9D9D9" fill-opacity="0.24"/>
<path d="M1291.2 252.159L1291.12 256.336L1294.24 255.026L1291.87 257.914L1294.8 259.793L1291.52 259.7L1292.55 263.667L1290.28 260.648L1288.8 264.379L1288.88 260.203L1285.76 261.513L1288.13 258.625L1285.2 256.746L1288.48 256.839L1287.45 252.872L1289.72 255.89L1291.2 252.159Z" fill="#FFFFFA"/>
<ellipse cx="2.63917" cy="3.26143" rx="2.63917" ry="3.26143" transform="matrix(0.953193 0.302363 -0.192314 0.981333 1288.11 254.271)" fill="#FFFFFA"/>
<ellipse cx="4.00724" cy="5.09741" rx="4.00724" ry="5.09741" transform="matrix(0.999731 0.023212 -0.0143427 0.999897 1286.07 253.08)" fill="#D9D9D9" fill-opacity="0.24"/>
<path d="M423.799 314.63L423.781 315.674L424.561 315.346L423.967 316.068L424.701 316.538L423.88 316.515L424.137 317.507L423.57 316.752L423.201 317.685L423.219 316.641L422.439 316.968L423.032 316.246L422.299 315.776L423.12 315.799L422.863 314.808L423.43 315.562L423.799 314.63Z" fill="#FFFFFA"/>
<ellipse cx="0.659793" cy="0.815358" rx="0.659793" ry="0.815358" transform="matrix(0.953193 0.302363 -0.192314 0.981333 423.028 315.157)" fill="#FFFFFA"/>
<ellipse cx="1.00181" cy="1.27435" rx="1.00181" ry="1.27435" transform="matrix(0.999731 0.023212 -0.0143427 0.999897 422.517 314.86)" fill="#D9D9D9" fill-opacity="0.24"/>
<path d="M303.799 826.079L303.781 827.123L304.561 826.796L303.967 827.518L304.701 827.988L303.88 827.965L304.137 828.956L303.57 828.202L303.201 829.134L303.219 828.09L302.439 828.418L303.032 827.696L302.299 827.226L303.12 827.249L302.863 826.257L303.43 827.012L303.799 826.079Z" fill="#FFFFFA"/>
<ellipse cx="0.659793" cy="0.815358" rx="0.659793" ry="0.815358" transform="matrix(0.953193 0.302363 -0.192314 0.981333 303.028 826.607)" fill="#FFFFFA"/>
<ellipse cx="1.00181" cy="1.27435" rx="1.00181" ry="1.27435" transform="matrix(0.999731 0.023212 -0.0143427 0.999897 302.517 826.309)" fill="#D9D9D9" fill-opacity="0.24"/>
<path d="M1263.8 846.436L1263.78 847.48L1264.56 847.152L1263.97 847.874L1264.7 848.344L1263.88 848.321L1264.14 849.313L1263.57 848.558L1263.2 849.491L1263.22 848.446L1262.44 848.774L1263.03 848.052L1262.3 847.582L1263.12 847.605L1262.86 846.614L1263.43 847.368L1263.8 846.436Z" fill="#FFFFFA"/>
<ellipse cx="0.659793" cy="0.815358" rx="0.659793" ry="0.815358" transform="matrix(0.953193 0.302363 -0.192314 0.981333 1263.03 846.964)" fill="#FFFFFA"/>
<ellipse cx="1.00181" cy="1.27435" rx="1.00181" ry="1.27435" transform="matrix(0.999731 0.023212 -0.0143427 0.999897 1262.52 846.666)" fill="#D9D9D9" fill-opacity="0.24"/>
<path d="M120.799 1167.05L120.781 1168.09L121.561 1167.76L120.967 1168.48L121.701 1168.95L120.88 1168.93L121.137 1169.92L120.57 1169.17L120.201 1170.1L120.219 1169.06L119.439 1169.38L120.032 1168.66L119.299 1168.19L120.12 1168.22L119.863 1167.22L120.43 1167.98L120.799 1167.05Z" fill="#FFFFFA"/>
<ellipse cx="0.659793" cy="0.815358" rx="0.659793" ry="0.815358" transform="matrix(0.953193 0.302363 -0.192314 0.981333 120.028 1167.57)" fill="#FFFFFA"/>
<ellipse cx="1.00181" cy="1.27435" rx="1.00181" ry="1.27435" transform="matrix(0.999731 0.023212 -0.0143427 0.999897 119.517 1167.28)" fill="#D9D9D9" fill-opacity="0.24"/>
<path d="M367.799 1102.16L367.781 1103.2L368.561 1102.88L367.967 1103.6L368.701 1104.07L367.88 1104.05L368.137 1105.04L367.57 1104.28L367.201 1105.22L367.219 1104.17L366.439 1104.5L367.032 1103.78L366.299 1103.31L367.12 1103.33L366.863 1102.34L367.43 1103.09L367.799 1102.16Z" fill="#FFFFFA"/>
<ellipse cx="0.659793" cy="0.815358" rx="0.659793" ry="0.815358" transform="matrix(0.953193 0.302363 -0.192314 0.981333 367.028 1102.69)" fill="#FFFFFA"/>
<ellipse cx="1.00181" cy="1.27435" rx="1.00181" ry="1.27435" transform="matrix(0.999731 0.023212 -0.0143427 0.999897 366.517 1102.39)" fill="#D9D9D9" fill-opacity="0.24"/>
<path d="M212.799 771.372L212.781 772.416L213.561 772.089L212.967 772.811L213.701 773.28L212.88 773.257L213.137 774.249L212.57 773.494L212.201 774.427L212.219 773.383L211.439 773.71L212.032 772.988L211.299 772.519L212.12 772.542L211.863 771.55L212.43 772.305L212.799 771.372Z" fill="#FFFFFA"/>
<ellipse cx="0.659793" cy="0.815358" rx="0.659793" ry="0.815358" transform="matrix(0.953193 0.302363 -0.192314 0.981333 212.028 771.9)" fill="#FFFFFA"/>
<ellipse cx="1.00181" cy="1.27435" rx="1.00181" ry="1.27435" transform="matrix(0.999731 0.023212 -0.0143427 0.999897 211.517 771.602)" fill="#D9D9D9" fill-opacity="0.24"/>
<path d="M238.799 1439.31L238.781 1440.35L239.561 1440.03L238.967 1440.75L239.701 1441.22L238.88 1441.2L239.137 1442.19L238.57 1441.43L238.201 1442.36L238.219 1441.32L237.439 1441.65L238.032 1440.93L237.299 1440.46L238.12 1440.48L237.863 1439.49L238.43 1440.24L238.799 1439.31Z" fill="#FFFFFA"/>
<ellipse cx="0.659793" cy="0.815358" rx="0.659793" ry="0.815358" transform="matrix(0.953193 0.302363 -0.192314 0.981333 238.028 1439.84)" fill="#FFFFFA"/>
<ellipse cx="1.00181" cy="1.27435" rx="1.00181" ry="1.27435" transform="matrix(0.999731 0.023212 -0.0143427 0.999897 237.517 1439.54)" fill="#D9D9D9" fill-opacity="0.24"/>
<path d="M235.799 323.536L235.781 324.58L236.561 324.252L235.967 324.974L236.701 325.444L235.88 325.421L236.137 326.413L235.57 325.658L235.201 326.591L235.219 325.547L234.439 325.874L235.032 325.152L234.299 324.682L235.12 324.705L234.863 323.714L235.43 324.468L235.799 323.536Z" fill="#FFFFFA"/>
<ellipse cx="0.659793" cy="0.815358" rx="0.659793" ry="0.815358" transform="matrix(0.953193 0.302363 -0.192314 0.981333 235.028 324.063)" fill="#FFFFFA"/>
<ellipse cx="1.00181" cy="1.27435" rx="1.00181" ry="1.27435" transform="matrix(0.999731 0.023212 -0.0143427 0.999897 234.517 323.766)" fill="#D9D9D9" fill-opacity="0.24"/>
<path d="M309.799 546.182L309.781 547.226L310.561 546.898L309.967 547.62L310.701 548.09L309.88 548.067L310.137 549.058L309.57 548.304L309.201 549.237L309.219 548.192L308.439 548.52L309.032 547.798L308.299 547.328L309.12 547.351L308.863 546.36L309.43 547.114L309.799 546.182Z" fill="#FFFFFA"/>
<ellipse cx="0.659793" cy="0.815358" rx="0.659793" ry="0.815358" transform="matrix(0.953193 0.302363 -0.192314 0.981333 309.028 546.709)" fill="#FFFFFA"/>
<ellipse cx="1.00181" cy="1.27435" rx="1.00181" ry="1.27435" transform="matrix(0.999731 0.023212 -0.0143427 0.999897 308.517 546.412)" fill="#D9D9D9" fill-opacity="0.24"/>
<path d="M388.799 1650.51L388.781 1651.55L389.561 1651.22L388.967 1651.94L389.701 1652.41L388.88 1652.39L389.137 1653.38L388.57 1652.63L388.201 1653.56L388.219 1652.52L387.439 1652.84L388.032 1652.12L387.299 1651.65L388.12 1651.68L387.863 1650.68L388.43 1651.44L388.799 1650.51Z" fill="#FFFFFA"/>
<ellipse cx="0.659793" cy="0.815358" rx="0.659793" ry="0.815358" transform="matrix(0.953193 0.302363 -0.192314 0.981333 388.028 1651.03)" fill="#FFFFFA"/>
<ellipse cx="1.00181" cy="1.27435" rx="1.00181" ry="1.27435" transform="matrix(0.999731 0.023212 -0.0143427 0.999897 387.517 1650.74)" fill="#D9D9D9" fill-opacity="0.24"/>
<path d="M214.799 1817.17L214.781 1818.22L215.561 1817.89L214.967 1818.61L215.701 1819.08L214.88 1819.06L215.137 1820.05L214.57 1819.29L214.201 1820.23L214.219 1819.18L213.439 1819.51L214.032 1818.79L213.299 1818.32L214.12 1818.34L213.863 1817.35L214.43 1818.1L214.799 1817.17Z" fill="#FFFFFA"/>
<ellipse cx="0.659793" cy="0.815358" rx="0.659793" ry="0.815358" transform="matrix(0.953193 0.302363 -0.192314 0.981333 214.028 1817.7)" fill="#FFFFFA"/>
<ellipse cx="1.00181" cy="1.27435" rx="1.00181" ry="1.27435" transform="matrix(0.999731 0.023212 -0.0143427 0.999897 213.517 1817.4)" fill="#D9D9D9" fill-opacity="0.24"/>
<path d="M1329.8 1809.54L1329.78 1810.58L1330.56 1810.25L1329.97 1810.98L1330.7 1811.45L1329.88 1811.42L1330.14 1812.42L1329.57 1811.66L1329.2 1812.59L1329.22 1811.55L1328.44 1811.88L1329.03 1811.15L1328.3 1810.68L1329.12 1810.71L1328.86 1809.72L1329.43 1810.47L1329.8 1809.54Z" fill="#FFFFFA"/>
<ellipse cx="0.659793" cy="0.815358" rx="0.659793" ry="0.815358" transform="matrix(0.953193 0.302363 -0.192314 0.981333 1329.03 1810.07)" fill="#FFFFFA"/>
<ellipse cx="1.00181" cy="1.27435" rx="1.00181" ry="1.27435" transform="matrix(0.999731 0.023212 -0.0143427 0.999897 1328.52 1809.77)" fill="#D9D9D9" fill-opacity="0.24"/>
<path d="M1346.2 1533.33L1346.12 1537.5L1349.24 1536.19L1346.87 1539.08L1349.8 1540.96L1346.52 1540.87L1347.55 1544.84L1345.28 1541.82L1343.8 1545.55L1343.88 1541.37L1340.76 1542.68L1343.13 1539.79L1340.2 1537.91L1343.48 1538.01L1342.45 1534.04L1344.72 1537.06L1346.2 1533.33Z" fill="#FFFFFA"/>
<ellipse cx="2.63917" cy="3.26143" rx="2.63917" ry="3.26143" transform="matrix(0.953193 0.302363 -0.192314 0.981333 1343.11 1535.44)" fill="#FFFFFA"/>
<ellipse cx="4.00724" cy="5.09741" rx="4.00724" ry="5.09741" transform="matrix(0.999731 0.023212 -0.0143427 0.999897 1341.07 1534.25)" fill="#D9D9D9" fill-opacity="0.24"/>
<path d="M114.799 2314.63L114.781 2315.67L115.561 2315.34L114.967 2316.07L115.701 2316.53L114.88 2316.51L115.137 2317.5L114.57 2316.75L114.201 2317.68L114.219 2316.64L113.439 2316.96L114.032 2316.24L113.299 2315.77L114.12 2315.8L113.863 2314.8L114.43 2315.56L114.799 2314.63Z" fill="#FFFFFA"/>
<ellipse cx="0.659793" cy="0.815358" rx="0.659793" ry="0.815358" transform="matrix(0.953193 0.302363 -0.192314 0.981333 114.028 2315.15)" fill="#FFFFFA"/>
<ellipse cx="1.00181" cy="1.27435" rx="1.00181" ry="1.27435" transform="matrix(0.999731 0.023212 -0.0143427 0.999897 113.517 2314.86)" fill="#D9D9D9" fill-opacity="0.24"/>
<path d="M491.799 2251.01L491.781 2252.06L492.561 2251.73L491.967 2252.45L492.701 2252.92L491.88 2252.9L492.137 2253.89L491.57 2253.14L491.201 2254.07L491.219 2253.02L490.439 2253.35L491.032 2252.63L490.299 2252.16L491.12 2252.18L490.863 2251.19L491.43 2251.95L491.799 2251.01Z" fill="#FFFFFA"/>
<ellipse cx="0.659793" cy="0.815358" rx="0.659793" ry="0.815358" transform="matrix(0.953193 0.302363 -0.192314 0.981333 491.028 2251.54)" fill="#FFFFFA"/>
<ellipse cx="1.00181" cy="1.27435" rx="1.00181" ry="1.27435" transform="matrix(0.999731 0.023212 -0.0143427 0.999897 490.517 2251.24)" fill="#D9D9D9" fill-opacity="0.24"/>
<path d="M775.799 2823.53L775.781 2824.58L776.561 2824.25L775.967 2824.97L776.701 2825.44L775.88 2825.42L776.137 2826.41L775.57 2825.65L775.201 2826.59L775.219 2825.54L774.439 2825.87L775.032 2825.15L774.299 2824.68L775.12 2824.7L774.863 2823.71L775.43 2824.46L775.799 2823.53Z" fill="#FFFFFA"/>
<ellipse cx="0.659793" cy="0.815358" rx="0.659793" ry="0.815358" transform="matrix(0.953193 0.302363 -0.192314 0.981333 775.028 2824.06)" fill="#FFFFFA"/>
<ellipse cx="1.00181" cy="1.27435" rx="1.00181" ry="1.27435" transform="matrix(0.999731 0.023212 -0.0143427 0.999897 774.517 2823.76)" fill="#D9D9D9" fill-opacity="0.24"/>
<path d="M225.799 2959.66L225.781 2960.71L226.561 2960.38L225.967 2961.1L226.701 2961.57L225.88 2961.55L226.137 2962.54L225.57 2961.79L225.201 2962.72L225.219 2961.67L224.439 2962L225.032 2961.28L224.299 2960.81L225.12 2960.83L224.863 2959.84L225.43 2960.6L225.799 2959.66Z" fill="#FFFFFA"/>
<ellipse cx="0.659793" cy="0.815358" rx="0.659793" ry="0.815358" transform="matrix(0.953193 0.302363 -0.192314 0.981333 225.028 2960.19)" fill="#FFFFFA"/>
<ellipse cx="1.00181" cy="1.27435" rx="1.00181" ry="1.27435" transform="matrix(0.999731 0.023212 -0.0143427 0.999897 224.517 2959.89)" fill="#D9D9D9" fill-opacity="0.24"/>
<path d="M660.799 3165.77L660.781 3166.81L661.561 3166.49L660.967 3167.21L661.701 3167.68L660.88 3167.66L661.137 3168.65L660.57 3167.89L660.201 3168.83L660.219 3167.78L659.439 3168.11L660.032 3167.39L659.299 3166.92L660.12 3166.94L659.863 3165.95L660.43 3166.7L660.799 3165.77Z" fill="#FFFFFA"/>
<ellipse cx="0.659793" cy="0.815358" rx="0.659793" ry="0.815358" transform="matrix(0.953193 0.302363 -0.192314 0.981333 660.028 3166.3)" fill="#FFFFFA"/>
<ellipse cx="1.00181" cy="1.27435" rx="1.00181" ry="1.27435" transform="matrix(0.999731 0.023212 -0.0143427 0.999897 659.517 3166)" fill="#D9D9D9" fill-opacity="0.24"/>
<path d="M959.799 2892.23L959.781 2893.28L960.561 2892.95L959.967 2893.67L960.701 2894.14L959.88 2894.12L960.137 2895.11L959.57 2894.36L959.201 2895.29L959.219 2894.24L958.439 2894.57L959.032 2893.85L958.299 2893.38L959.12 2893.4L958.863 2892.41L959.43 2893.17L959.799 2892.23Z" fill="#FFFFFA"/>
<ellipse cx="0.659793" cy="0.815358" rx="0.659793" ry="0.815358" transform="matrix(0.953193 0.302363 -0.192314 0.981333 959.028 2892.76)" fill="#FFFFFA"/>
<ellipse cx="1.00181" cy="1.27435" rx="1.00181" ry="1.27435" transform="matrix(0.999731 0.023212 -0.0143427 0.999897 958.517 2892.46)" fill="#D9D9D9" fill-opacity="0.24"/>
<path d="M124.799 2894.78L124.781 2895.82L125.561 2895.5L124.967 2896.22L125.701 2896.69L124.88 2896.66L125.137 2897.66L124.57 2896.9L124.201 2897.83L124.219 2896.79L123.439 2897.12L124.032 2896.39L123.299 2895.92L124.12 2895.95L123.863 2894.96L124.43 2895.71L124.799 2894.78Z" fill="#FFFFFA"/>
<ellipse cx="0.659793" cy="0.815358" rx="0.659793" ry="0.815358" transform="matrix(0.953193 0.302363 -0.192314 0.981333 124.028 2895.31)" fill="#FFFFFA"/>
<ellipse cx="1.00181" cy="1.27435" rx="1.00181" ry="1.27435" transform="matrix(0.999731 0.023212 -0.0143427 0.999897 123.517 2895.01)" fill="#D9D9D9" fill-opacity="0.24"/>
<path d="M1162.8 2866.79L1162.78 2867.83L1163.56 2867.51L1162.97 2868.23L1163.7 2868.7L1162.88 2868.67L1163.14 2869.67L1162.57 2868.91L1162.2 2869.84L1162.22 2868.8L1161.44 2869.13L1162.03 2868.4L1161.3 2867.94L1162.12 2867.96L1161.86 2866.97L1162.43 2867.72L1162.8 2866.79Z" fill="#FFFFFA"/>
<ellipse cx="0.659793" cy="0.815358" rx="0.659793" ry="0.815358" transform="matrix(0.953193 0.302363 -0.192314 0.981333 1162.03 2867.32)" fill="#FFFFFA"/>
<ellipse cx="1.00181" cy="1.27435" rx="1.00181" ry="1.27435" transform="matrix(0.999731 0.023212 -0.0143427 0.999897 1161.52 2867.02)" fill="#D9D9D9" fill-opacity="0.24"/>
<path d="M1375.2 3154.19L1375.12 3158.37L1378.24 3157.06L1375.87 3159.94L1378.8 3161.82L1375.52 3161.73L1376.55 3165.7L1374.28 3162.68L1372.8 3166.41L1372.88 3162.23L1369.76 3163.54L1372.13 3160.66L1369.2 3158.78L1372.48 3158.87L1371.45 3154.9L1373.72 3157.92L1375.2 3154.19Z" fill="#FFFFFA"/>
<ellipse cx="2.63917" cy="3.26143" rx="2.63917" ry="3.26143" transform="matrix(0.953193 0.302363 -0.192314 0.981333 1372.11 3156.3)" fill="#FFFFFA"/>
<ellipse cx="4.00724" cy="5.09741" rx="4.00724" ry="5.09741" transform="matrix(0.999731 0.023212 -0.0143427 0.999897 1370.07 3155.11)" fill="#D9D9D9" fill-opacity="0.24"/>
<path d="M1305.8 2670.86L1305.78 2671.9L1306.56 2671.58L1305.97 2672.3L1306.7 2672.77L1305.88 2672.75L1306.14 2673.74L1305.57 2672.98L1305.2 2673.92L1305.22 2672.87L1304.44 2673.2L1305.03 2672.48L1304.3 2672.01L1305.12 2672.03L1304.86 2671.04L1305.43 2671.79L1305.8 2670.86Z" fill="#FFFFFA"/>
<ellipse cx="0.659793" cy="0.815358" rx="0.659793" ry="0.815358" transform="matrix(0.953193 0.302363 -0.192314 0.981333 1305.03 2671.39)" fill="#FFFFFA"/>
<ellipse cx="1.00181" cy="1.27435" rx="1.00181" ry="1.27435" transform="matrix(0.999731 0.023212 -0.0143427 0.999897 1304.52 2671.09)" fill="#D9D9D9" fill-opacity="0.24"/>
<path d="M192.799 3972.38L192.781 3973.43L193.561 3973.1L192.967 3973.82L193.701 3974.29L192.88 3974.27L193.137 3975.26L192.57 3974.51L192.201 3975.44L192.219 3974.4L191.439 3974.72L192.032 3974L191.299 3973.53L192.12 3973.55L191.863 3972.56L192.43 3973.32L192.799 3972.38Z" fill="#FFFFFA"/>
<ellipse cx="0.659793" cy="0.815358" rx="0.659793" ry="0.815358" transform="matrix(0.953193 0.302363 -0.192314 0.981333 192.028 3972.91)" fill="#FFFFFA"/>
<ellipse cx="1.00181" cy="1.27435" rx="1.00181" ry="1.27435" transform="matrix(0.999731 0.023212 -0.0143427 0.999897 191.517 3972.61)" fill="#D9D9D9" fill-opacity="0.24"/>
<path d="M165.197 4212.71L165.124 4216.89L168.242 4215.58L165.87 4218.47L168.802 4220.35L165.519 4220.25L166.549 4224.22L164.279 4221.2L162.802 4224.93L162.875 4220.76L159.757 4222.07L162.13 4219.18L159.197 4217.3L162.48 4217.39L161.45 4213.42L163.72 4216.44L165.197 4212.71Z" fill="#FFFFFA"/>
<ellipse cx="2.63917" cy="3.26143" rx="2.63917" ry="3.26143" transform="matrix(0.953193 0.302363 -0.192314 0.981333 162.111 4214.82)" fill="#FFFFFA"/>
<ellipse cx="4.00724" cy="5.09741" rx="4.00724" ry="5.09741" transform="matrix(0.999731 0.023212 -0.0143427 0.999897 160.067 4213.63)" fill="#D9D9D9" fill-opacity="0.24"/>
<path d="M735.799 4528.36L735.781 4529.41L736.561 4529.08L735.967 4529.8L736.701 4530.27L735.88 4530.25L736.137 4531.24L735.57 4530.49L735.201 4531.42L735.219 4530.37L734.439 4530.7L735.032 4529.98L734.299 4529.51L735.12 4529.53L734.863 4528.54L735.43 4529.3L735.799 4528.36Z" fill="#FFFFFA"/>
<ellipse cx="0.659793" cy="0.815358" rx="0.659793" ry="0.815358" transform="matrix(0.953193 0.302363 -0.192314 0.981333 735.028 4528.89)" fill="#FFFFFA"/>
<ellipse cx="1.00181" cy="1.27435" rx="1.00181" ry="1.27435" transform="matrix(0.999731 0.023212 -0.0143427 0.999897 734.517 4528.59)" fill="#D9D9D9" fill-opacity="0.24"/>
<path d="M1316.8 4214.11L1316.78 4215.16L1317.56 4214.83L1316.97 4215.55L1317.7 4216.02L1316.88 4216L1317.14 4216.99L1316.57 4216.24L1316.2 4217.17L1316.22 4216.13L1315.44 4216.45L1316.03 4215.73L1315.3 4215.26L1316.12 4215.28L1315.86 4214.29L1316.43 4215.05L1316.8 4214.11Z" fill="#FFFFFA"/>
<ellipse cx="0.659793" cy="0.815358" rx="0.659793" ry="0.815358" transform="matrix(0.953193 0.302363 -0.192314 0.981333 1316.03 4214.64)" fill="#FFFFFA"/>
<ellipse cx="1.00181" cy="1.27435" rx="1.00181" ry="1.27435" transform="matrix(0.999731 0.023212 -0.0143427 0.999897 1315.52 4214.34)" fill="#D9D9D9" fill-opacity="0.24"/>
<path d="M1350.8 3583.07L1350.78 3584.12L1351.56 3583.79L1350.97 3584.51L1351.7 3584.98L1350.88 3584.96L1351.14 3585.95L1350.57 3585.19L1350.2 3586.13L1350.22 3585.08L1349.44 3585.41L1350.03 3584.69L1349.3 3584.22L1350.12 3584.24L1349.86 3583.25L1350.43 3584.01L1350.8 3583.07Z" fill="#FFFFFA"/>
<ellipse cx="0.659793" cy="0.815358" rx="0.659793" ry="0.815358" transform="matrix(0.953193 0.302363 -0.192314 0.981333 1350.03 3583.6)" fill="#FFFFFA"/>
<ellipse cx="1.00181" cy="1.27435" rx="1.00181" ry="1.27435" transform="matrix(0.999731 0.023212 -0.0143427 0.999897 1349.52 3583.3)" fill="#D9D9D9" fill-opacity="0.24"/>
<path d="M1402.8 365.52L1402.78 366.564L1403.56 366.237L1402.97 366.959L1403.7 367.429L1402.88 367.405L1403.14 368.397L1402.57 367.643L1402.2 368.575L1402.22 367.531L1401.44 367.859L1402.03 367.137L1401.3 366.667L1402.12 366.69L1401.86 365.698L1402.43 366.453L1402.8 365.52Z" fill="#FFFFFA"/>
<ellipse cx="0.659793" cy="0.815358" rx="0.659793" ry="0.815358" transform="matrix(0.953193 0.302363 -0.192314 0.981333 1402.03 366.048)" fill="#FFFFFA"/>
<ellipse cx="1.00181" cy="1.27435" rx="1.00181" ry="1.27435" transform="matrix(0.999731 0.023212 -0.0143427 0.999897 1401.52 365.75)" fill="#D9D9D9" fill-opacity="0.24"/>
<path d="M220.197 1412.46L220.124 1416.64L223.242 1415.33L220.87 1418.22L223.802 1420.1L220.519 1420L221.549 1423.97L219.279 1420.95L217.802 1424.68L217.875 1420.51L214.757 1421.82L217.13 1418.93L214.197 1417.05L217.48 1417.14L216.45 1413.18L218.72 1416.19L220.197 1412.46Z" fill="#FFFFFA"/>
<ellipse cx="2.63917" cy="3.26143" rx="2.63917" ry="3.26143" transform="matrix(0.953193 0.302363 -0.192314 0.981333 217.111 1414.57)" fill="#FFFFFA"/>
<ellipse cx="4.00724" cy="5.09741" rx="4.00724" ry="5.09741" transform="matrix(0.999731 0.023212 -0.0143427 0.999897 215.067 1413.38)" fill="#D9D9D9" fill-opacity="0.24"/>
<path d="M468.799 1609.79L468.781 1610.84L469.561 1610.51L468.967 1611.23L469.701 1611.7L468.88 1611.68L469.137 1612.67L468.57 1611.92L468.201 1612.85L468.219 1611.8L467.439 1612.13L468.032 1611.41L467.299 1610.94L468.12 1610.96L467.863 1609.97L468.43 1610.73L468.799 1609.79Z" fill="#FFFFFA"/>
<ellipse cx="0.659793" cy="0.815358" rx="0.659793" ry="0.815358" transform="matrix(0.953193 0.302363 -0.192314 0.981333 468.028 1610.32)" fill="#FFFFFA"/>
<ellipse cx="1.00181" cy="1.27435" rx="1.00181" ry="1.27435" transform="matrix(0.999731 0.023212 -0.0143427 0.999897 467.517 1610.02)" fill="#D9D9D9" fill-opacity="0.24"/>
<path d="M1260.4 1660.81L1260.37 1662.2L1261.41 1661.77L1260.62 1662.73L1261.6 1663.35L1260.51 1663.32L1260.85 1664.65L1260.09 1663.64L1259.6 1664.88L1259.62 1663.49L1258.59 1663.93L1259.38 1662.97L1258.4 1662.34L1259.49 1662.37L1259.15 1661.05L1259.91 1662.05L1260.4 1660.81Z" fill="#FFFFFA"/>
<ellipse cx="0.879723" cy="1.08714" rx="0.879723" ry="1.08714" transform="matrix(0.953193 0.302363 -0.192314 0.981333 1259.37 1661.51)" fill="#FFFFFA"/>
<ellipse cx="1.33575" cy="1.69914" rx="1.33575" ry="1.69914" transform="matrix(0.999731 0.023212 -0.0143427 0.999897 1258.69 1661.12)" fill="#D9D9D9" fill-opacity="0.24"/>
<path d="M697.399 1350.38L697.374 1351.77L698.414 1351.33L697.623 1352.3L698.6 1352.92L697.506 1352.89L697.849 1354.21L697.093 1353.21L696.6 1354.45L696.625 1353.06L695.585 1353.5L696.376 1352.53L695.399 1351.91L696.493 1351.94L696.15 1350.62L696.906 1351.62L697.399 1350.38Z" fill="#FFFFFA"/>
<ellipse cx="0.879723" cy="1.08714" rx="0.879723" ry="1.08714" transform="matrix(0.953193 0.302363 -0.192314 0.981333 696.37 1351.08)" fill="#FFFFFA"/>
<ellipse cx="1.33575" cy="1.69914" rx="1.33575" ry="1.69914" transform="matrix(0.999731 0.023212 -0.0143427 0.999897 695.689 1350.69)" fill="#D9D9D9" fill-opacity="0.24"/>
<path d="M1318.2 2197.45L1318.12 2201.63L1321.24 2200.32L1318.87 2203.2L1321.8 2205.08L1318.52 2204.99L1319.55 2208.96L1317.28 2205.94L1315.8 2209.67L1315.88 2205.49L1312.76 2206.8L1315.13 2203.91L1312.2 2202.04L1315.48 2202.13L1314.45 2198.16L1316.72 2201.18L1318.2 2197.45Z" fill="#FFFFFA"/>
<ellipse cx="2.63917" cy="3.26143" rx="2.63917" ry="3.26143" transform="matrix(0.953193 0.302363 -0.192314 0.981333 1315.11 2199.56)" fill="#FFFFFA"/>
<ellipse cx="4.00724" cy="5.09741" rx="4.00724" ry="5.09741" transform="matrix(0.999731 0.023212 -0.0143427 0.999897 1313.07 2198.37)" fill="#D9D9D9" fill-opacity="0.24"/>
<path d="M253.399 2840.2L253.374 2841.59L254.414 2841.15L253.623 2842.12L254.6 2842.74L253.506 2842.71L253.849 2844.03L253.093 2843.03L252.6 2844.27L252.625 2842.88L251.585 2843.32L252.376 2842.35L251.399 2841.73L252.493 2841.76L252.15 2840.44L252.906 2841.44L253.399 2840.2Z" fill="#FFFFFA"/>
<ellipse cx="0.879723" cy="1.08714" rx="0.879723" ry="1.08714" transform="matrix(0.953193 0.302363 -0.192314 0.981333 252.37 2840.9)" fill="#FFFFFA"/>
<ellipse cx="1.33575" cy="1.69914" rx="1.33575" ry="1.69914" transform="matrix(0.999731 0.023212 -0.0143427 0.999897 251.689 2840.5)" fill="#D9D9D9" fill-opacity="0.24"/>
<g clip-path="url(#clip0_197_233)">
<path d="M110.197 3580.4L110.124 3584.57L113.242 3583.26L110.87 3586.15L113.802 3588.03L110.519 3587.94L111.549 3591.91L109.279 3588.89L107.802 3592.62L107.875 3588.44L104.757 3589.75L107.13 3586.86L104.197 3584.98L107.48 3585.08L106.45 3581.11L108.72 3584.13L110.197 3580.4Z" fill="#FFFFFA"/>
<ellipse cx="2.63917" cy="3.26143" rx="2.63917" ry="3.26143" transform="matrix(0.953193 0.302363 -0.192314 0.981333 107.111 3582.51)" fill="#FFFFFA"/>
<ellipse cx="4.00724" cy="5.09741" rx="4.00724" ry="5.09741" transform="matrix(0.999731 0.023212 -0.0143427 0.999897 105.067 3581.32)" fill="#D9D9D9" fill-opacity="0.24"/>
</g>
<path d="M92.7993 4541.09L92.7811 4542.13L93.5606 4541.8L92.9674 4542.52L93.7006 4542.99L92.8799 4542.97L93.1372 4543.96L92.5698 4543.21L92.2006 4544.14L92.2188 4543.1L91.4393 4543.42L92.0325 4542.7L91.2993 4542.23L92.12 4542.26L91.8626 4541.26L92.4301 4542.02L92.7993 4541.09Z" fill="#FFFFFA"/>
<ellipse cx="0.659793" cy="0.815358" rx="0.659793" ry="0.815358" transform="matrix(0.953193 0.302363 -0.192314 0.981333 92.0283 4541.61)" fill="#FFFFFA"/>
<ellipse cx="1.00181" cy="1.27435" rx="1.00181" ry="1.27435" transform="matrix(0.999731 0.023212 -0.0143427 0.999897 91.5166 4541.32)" fill="#D9D9D9" fill-opacity="0.24"/>
<path d="M125.197 4285.23L125.124 4289.41L128.242 4288.1L125.87 4290.99L128.802 4292.87L125.519 4292.77L126.549 4296.74L124.279 4293.72L122.802 4297.45L122.875 4293.28L119.757 4294.58L122.13 4291.7L119.197 4289.82L122.48 4289.91L121.45 4285.94L123.72 4288.96L125.197 4285.23Z" fill="#FFFFFA"/>
<ellipse cx="2.63917" cy="3.26143" rx="2.63917" ry="3.26143" transform="matrix(0.953193 0.302363 -0.192314 0.981333 122.111 4287.34)" fill="#FFFFFA"/>
<ellipse cx="4.00724" cy="5.09741" rx="4.00724" ry="5.09741" transform="matrix(0.999731 0.023212 -0.0143427 0.999897 120.067 4286.15)" fill="#D9D9D9" fill-opacity="0.24"/>
<path d="M199.799 4154.32L199.781 4155.36L200.561 4155.04L199.967 4155.76L200.701 4156.23L199.88 4156.2L200.137 4157.2L199.57 4156.44L199.201 4157.37L199.219 4156.33L198.439 4156.66L199.032 4155.93L198.299 4155.47L199.12 4155.49L198.863 4154.5L199.43 4155.25L199.799 4154.32Z" fill="#FFFFFA"/>
<ellipse cx="0.659793" cy="0.815358" rx="0.659793" ry="0.815358" transform="matrix(0.953193 0.302363 -0.192314 0.981333 199.028 4154.85)" fill="#FFFFFA"/>
<ellipse cx="1.00181" cy="1.27435" rx="1.00181" ry="1.27435" transform="matrix(0.999731 0.023212 -0.0143427 0.999897 198.517 4154.55)" fill="#D9D9D9" fill-opacity="0.24"/>
<path d="M378.799 4396.05L378.781 4397.09L379.561 4396.76L378.967 4397.49L379.701 4397.96L378.88 4397.93L379.137 4398.92L378.57 4398.17L378.201 4399.1L378.219 4398.06L377.439 4398.39L378.032 4397.66L377.299 4397.19L378.12 4397.22L377.863 4396.23L378.43 4396.98L378.799 4396.05Z" fill="#FFFFFA"/>
<ellipse cx="0.659793" cy="0.815358" rx="0.659793" ry="0.815358" transform="matrix(0.953193 0.302363 -0.192314 0.981333 378.028 4396.58)" fill="#FFFFFA"/>
<ellipse cx="1.00181" cy="1.27435" rx="1.00181" ry="1.27435" transform="matrix(0.999731 0.023212 -0.0143427 0.999897 377.517 4396.28)" fill="#D9D9D9" fill-opacity="0.24"/>
<path d="M1326.8 4366.79L1326.78 4367.83L1327.56 4367.5L1326.97 4368.22L1327.7 4368.69L1326.88 4368.67L1327.14 4369.66L1326.57 4368.91L1326.2 4369.84L1326.22 4368.8L1325.44 4369.12L1326.03 4368.4L1325.3 4367.93L1326.12 4367.96L1325.86 4366.96L1326.43 4367.72L1326.8 4366.79Z" fill="#FFFFFA"/>
<ellipse cx="0.659793" cy="0.815358" rx="0.659793" ry="0.815358" transform="matrix(0.953193 0.302363 -0.192314 0.981333 1326.03 4367.31)" fill="#FFFFFA"/>
<ellipse cx="1.00181" cy="1.27435" rx="1.00181" ry="1.27435" transform="matrix(0.999731 0.023212 -0.0143427 0.999897 1325.52 4367.02)" fill="#D9D9D9" fill-opacity="0.24"/>
<path d="M1379.8 4602.15L1379.78 4603.2L1380.56 4602.87L1379.97 4603.59L1380.7 4604.06L1379.88 4604.04L1380.14 4605.03L1379.57 4604.28L1379.2 4605.21L1379.22 4604.17L1378.44 4604.49L1379.03 4603.77L1378.3 4603.3L1379.12 4603.32L1378.86 4602.33L1379.43 4603.09L1379.8 4602.15Z" fill="#FFFFFA"/>
<ellipse cx="0.659793" cy="0.815358" rx="0.659793" ry="0.815358" transform="matrix(0.953193 0.302363 -0.192314 0.981333 1379.03 4602.68)" fill="#FFFFFA"/>
<ellipse cx="1.00181" cy="1.27435" rx="1.00181" ry="1.27435" transform="matrix(0.999731 0.023212 -0.0143427 0.999897 1378.52 4602.39)" fill="#D9D9D9" fill-opacity="0.24"/>
<path d="M1247.4 635.367L1247.37 636.759L1248.41 636.322L1247.62 637.285L1248.6 637.911L1247.51 637.88L1247.85 639.203L1247.09 638.196L1246.6 639.44L1246.62 638.048L1245.59 638.485L1246.38 637.522L1245.4 636.896L1246.49 636.927L1246.15 635.604L1246.91 636.611L1247.4 635.367Z" fill="#FFFFFA"/>
<ellipse cx="0.879723" cy="1.08714" rx="0.879723" ry="1.08714" transform="matrix(0.953193 0.302363 -0.192314 0.981333 1246.37 636.071)" fill="#FFFFFA"/>
<ellipse cx="1.33575" cy="1.69914" rx="1.33575" ry="1.69914" transform="matrix(0.999731 0.023212 -0.0143427 0.999897 1245.69 635.674)" fill="#D9D9D9" fill-opacity="0.24"/>
<path d="M350.799 481.296L350.781 482.34L351.561 482.013L350.967 482.735L351.701 483.205L350.88 483.181L351.137 484.173L350.57 483.418L350.201 484.351L350.219 483.307L349.439 483.635L350.032 482.913L349.299 482.443L350.12 482.466L349.863 481.474L350.43 482.229L350.799 481.296Z" fill="#FFFFFA"/>
<ellipse cx="0.659793" cy="0.815358" rx="0.659793" ry="0.815358" transform="matrix(0.953193 0.302363 -0.192314 0.981333 350.028 481.824)" fill="#FFFFFA"/>
<ellipse cx="1.00181" cy="1.27435" rx="1.00181" ry="1.27435" transform="matrix(0.999731 0.023212 -0.0143427 0.999897 349.517 481.526)" fill="#D9D9D9" fill-opacity="0.24"/>
<path d="M560.799 762.466L560.781 763.51L561.561 763.183L560.967 763.905L561.701 764.374L560.88 764.351L561.137 765.343L560.57 764.588L560.201 765.521L560.219 764.477L559.439 764.804L560.032 764.082L559.299 763.613L560.12 763.636L559.863 762.644L560.43 763.399L560.799 762.466Z" fill="#FFFFFA"/>
<ellipse cx="0.659793" cy="0.815358" rx="0.659793" ry="0.815358" transform="matrix(0.953193 0.302363 -0.192314 0.981333 560.028 762.994)" fill="#FFFFFA"/>
<ellipse cx="1.00181" cy="1.27435" rx="1.00181" ry="1.27435" transform="matrix(0.999731 0.023212 -0.0143427 0.999897 559.517 762.696)" fill="#D9D9D9" fill-opacity="0.24"/>
<path d="M350.399 658.268L350.374 659.66L351.414 659.223L350.623 660.186L351.6 660.812L350.506 660.781L350.849 662.104L350.093 661.097L349.6 662.341L349.625 660.949L348.585 661.385L349.376 660.423L348.399 659.796L349.493 659.827L349.15 658.505L349.906 659.511L350.399 658.268Z" fill="#FFFFFA"/>
<ellipse cx="0.879723" cy="1.08714" rx="0.879723" ry="1.08714" transform="matrix(0.953193 0.302363 -0.192314 0.981333 349.37 658.971)" fill="#FFFFFA"/>
<ellipse cx="1.33575" cy="1.69914" rx="1.33575" ry="1.69914" transform="matrix(0.999731 0.023212 -0.0143427 0.999897 348.689 658.574)" fill="#D9D9D9" fill-opacity="0.24"/>
<rect width="366.667" height="9.71714" rx="4.85857" transform="matrix(-0.840418 -0.541938 -0.370095 0.928994 1323.79 1315.82)" fill="url(#paint1_linear_197_233)"/>
<ellipse cx="6.31937" cy="7.66575" rx="6.31937" ry="7.66575" transform="matrix(-0.840418 -0.541938 -0.370095 0.928994 1326.47 1314.27)" fill="#D9D9D9" fill-opacity="0.18"/>
<path d="M1320.44 1312.66L1318.57 1315.73L1317.4 1312.26L1317.42 1316.11L1314.79 1314.53L1316.69 1317.36L1313.83 1318.42L1316.73 1318.9L1314.98 1322.09L1317.52 1320L1317.69 1323.84L1318.68 1320.15L1320.7 1322.84L1319.68 1319.29L1322.6 1319.57L1320.04 1317.8L1322.5 1315.54L1319.6 1316.4L1320.44 1312.66Z" fill="#D9D9D9"/>
<ellipse cx="3.3822" cy="4.10279" rx="3.3822" ry="4.10279" transform="matrix(-0.840418 -0.541938 -0.370095 0.928994 1322.65 1315.84)" fill="#36A5C9"/>
<rect width="374.517" height="9.55711" rx="4.77856" transform="matrix(-0.781 -0.624531 -0.442923 0.89656 488.244 4584.96)" fill="url(#paint2_linear_197_233)"/>
<ellipse cx="6.45465" cy="7.5395" rx="6.45465" ry="7.5395" transform="matrix(-0.781 -0.624531 -0.442923 0.89656 491.029 4583.74)" fill="#D9D9D9" fill-opacity="0.18"/>
<path d="M485.142 4581.42L483.053 4584.26L482.14 4580.67L481.881 4584.51L479.376 4582.63L481.069 4585.67L478.144 4586.38L480.996 4587.2L479.02 4590.18L481.697 4588.39L481.594 4592.24L482.844 4588.68L484.662 4591.6L483.9 4587.93L486.788 4588.55L484.37 4586.5L486.978 4584.54L484.036 4585.05L485.142 4581.42Z" fill="#D9D9D9"/>
<ellipse cx="3.4546" cy="4.03523" rx="3.4546" ry="4.03523" transform="matrix(-0.781 -0.624531 -0.442923 0.89656 487.11 4584.85)" fill="#36A5C9"/>
<defs>
<linearGradient id="paint0_linear_197_233" x1="720" y1="0" x2="720" y2="4729" gradientUnits="userSpaceOnUse">
<stop stop-color="#491D8E"/>
<stop offset="0.475218" stop-color="#1B2874"/>
<stop offset="1" stop-color="#324E84"/>
</linearGradient>
<linearGradient id="paint1_linear_197_233" x1="0" y1="4.85857" x2="366.667" y2="4.85857" gradientUnits="userSpaceOnUse">
<stop offset="0.168536" stop-color="#86C4D8"/>
<stop offset="0.507612" stop-color="#737373" stop-opacity="0"/>
</linearGradient>
<linearGradient id="paint2_linear_197_233" x1="0" y1="4.77856" x2="374.517" y2="4.77856" gradientUnits="userSpaceOnUse">
<stop offset="0.168536" stop-color="#86C4D8"/>
<stop offset="0.507612" stop-color="#737373" stop-opacity="0"/>
</linearGradient>
<clipPath id="clip0_197_233">
<rect width="12" height="15.2672" fill="white" transform="translate(103 3578.87)"/>
</clipPath>
</defs>
</svg>
