<svg width="106" height="69" viewBox="0 0 106 69" fill="none" xmlns="http://www.w3.org/2000/svg">
<path fill-rule="evenodd" clip-rule="evenodd" d="M8.98821 34.8311C6.31478 34.0583 0.450674 30.9526 1.04154 27.4861C1.63241 24.0196 4.15872 22.6051 6.26602 21.5852C9.38386 20.0762 17.0943 17.8718 17.0943 17.8718C17.0943 17.8718 11.3235 23.8653 12.0821 26.23C12.8408 28.5946 17.9422 29.4597 18.7631 29.5761C18.8902 29.5941 19.0079 29.1135 19.2102 28.2881C19.7734 25.9887 20.9923 21.0134 24.8945 16.687C28.6417 12.5325 35.834 8.723 43.0217 9.57125C60.3813 11.6199 64.1212 29.2775 64.1212 29.2775C64.1212 29.2775 73.1772 28.8214 74.4921 28.9192C75.8071 29.017 76.9885 30.0305 77.1556 31.1284C77.3227 32.2262 77.4723 33.9283 75.3014 34.5908C74.231 34.9175 54.7333 36.7869 42.596 37.2933C30.4587 37.7997 11.6616 35.6039 8.98821 34.8311ZM25.5547 29.2443C25.5547 29.2443 27.8305 15.4003 40.7272 15.3943C53.6238 15.3884 57.0797 28.7376 57.0797 28.7376C57.0797 28.7376 43.6774 29.7452 40.7272 29.7452C37.777 29.7452 25.5547 29.2443 25.5547 29.2443Z" fill="#822D89"/>
<path d="M1.04154 27.4861L0.548649 27.4021L0.548649 27.4021L1.04154 27.4861ZM8.98821 34.8311L8.84936 35.3114L8.84936 35.3114L8.98821 34.8311ZM6.26602 21.5852L6.48384 22.0352L6.48384 22.0352L6.26602 21.5852ZM17.0943 17.8718L17.4544 18.2186L18.7429 16.8804L16.9568 17.391L17.0943 17.8718ZM12.0821 26.23L11.606 26.3827L11.606 26.3827L12.0821 26.23ZM18.7631 29.5761L18.8333 29.081L18.8333 29.081L18.7631 29.5761ZM19.2102 28.2881L19.6958 28.407L19.6958 28.407L19.2102 28.2881ZM24.8945 16.687L24.5232 16.3521L24.5232 16.3521L24.8945 16.687ZM43.0217 9.57125L43.0803 9.07469L43.0803 9.07469L43.0217 9.57125ZM64.1212 29.2775L63.632 29.3811L63.7204 29.7983L64.1463 29.7769L64.1212 29.2775ZM74.4921 28.9192L74.5292 28.4206L74.5292 28.4206L74.4921 28.9192ZM77.1556 31.1284L77.6499 31.0531L77.6499 31.0531L77.1556 31.1284ZM75.3014 34.5908L75.4474 35.0691L75.4474 35.0691L75.3014 34.5908ZM42.596 37.2933L42.6168 37.7929L42.6168 37.7929L42.596 37.2933ZM40.7272 15.3943L40.7269 14.8943L40.7269 14.8943L40.7272 15.3943ZM25.5547 29.2443L25.0613 29.1632L24.9696 29.7208L25.5342 29.7439L25.5547 29.2443ZM57.0797 28.7376L57.1172 29.2362L57.7137 29.1914L57.5638 28.6123L57.0797 28.7376ZM0.548649 27.4021C0.373958 28.4269 0.683682 29.3968 1.23743 30.2579C1.78888 31.1155 2.5991 31.894 3.48905 32.5674C5.26671 33.9126 7.45688 34.9089 8.84936 35.3114L9.12707 34.3508C7.8461 33.9805 5.7675 33.0375 4.09247 31.77C3.25608 31.1371 2.54398 30.4409 2.07854 29.7171C1.6154 28.9968 1.41369 28.2785 1.53443 27.5701L0.548649 27.4021ZM6.0482 21.1351C3.92841 22.161 1.18445 23.672 0.548649 27.4021L1.53443 27.5701C2.08037 24.3672 4.38904 23.0491 6.48384 22.0352L6.0482 21.1351ZM17.0943 17.8718C16.9568 17.391 16.9568 17.391 16.9567 17.3911C16.9566 17.3911 16.9565 17.3911 16.9564 17.3911C16.9561 17.3912 16.9558 17.3913 16.9553 17.3915C16.9543 17.3917 16.9528 17.3922 16.9509 17.3927C16.9471 17.3938 16.9415 17.3954 16.934 17.3976C16.9192 17.4018 16.8971 17.4082 16.8683 17.4165C16.8106 17.4331 16.7259 17.4577 16.617 17.4894C16.3991 17.5529 16.0847 17.6452 15.6978 17.7607C14.9241 17.9915 13.8597 18.3152 12.6973 18.6863C10.384 19.4247 7.64386 20.3628 6.0482 21.1351L6.48384 22.0352C8.00603 21.2985 10.68 20.3799 13.0014 19.6389C14.1562 19.2703 15.2143 18.9485 15.9838 18.7189C16.3684 18.6041 16.6808 18.5124 16.8968 18.4495C17.0048 18.418 17.0887 18.3937 17.1455 18.3773C17.1739 18.3691 17.1956 18.3629 17.2101 18.3587C17.2173 18.3566 17.2228 18.3551 17.2264 18.354C17.2282 18.3535 17.2295 18.3531 17.2304 18.3529C17.2309 18.3527 17.2312 18.3526 17.2314 18.3526C17.2315 18.3525 17.2316 18.3525 17.2316 18.3525C17.2317 18.3525 17.2317 18.3525 17.0943 17.8718ZM12.5582 26.0772C12.5001 25.8959 12.4935 25.6405 12.5682 25.2986C12.6421 24.9601 12.7881 24.5709 12.995 24.1448C13.409 23.2923 14.0375 22.3508 14.7035 21.4645C15.3669 20.5814 16.0554 19.769 16.5791 19.1763C16.8407 18.8803 17.0604 18.6399 17.2143 18.474C17.2913 18.391 17.3518 18.3266 17.3928 18.2833C17.4133 18.2616 17.429 18.2452 17.4394 18.2343C17.4446 18.2288 17.4485 18.2248 17.451 18.2222C17.4522 18.2208 17.4532 18.2199 17.4538 18.2193C17.454 18.219 17.4542 18.2188 17.4544 18.2186C17.4544 18.2186 17.4544 18.2186 17.4545 18.2185C17.4545 18.2185 17.4544 18.2186 17.0943 17.8718C16.7341 17.525 16.734 17.525 16.7339 17.5251C16.7339 17.5252 16.7337 17.5253 16.7336 17.5254C16.7334 17.5257 16.7331 17.526 16.7327 17.5264C16.7318 17.5273 16.7307 17.5285 16.7292 17.5301C16.7262 17.5332 16.7218 17.5378 16.7161 17.5438C16.7047 17.5557 16.688 17.5732 16.6664 17.596C16.6233 17.6416 16.5606 17.7083 16.4812 17.7939C16.3226 17.9649 16.0974 18.2113 15.8298 18.5141C15.2952 19.1191 14.5884 19.9528 13.904 20.8638C13.222 21.7714 12.5501 22.7717 12.0955 23.708C11.8681 24.1763 11.6877 24.6433 11.5912 25.0853C11.4955 25.5237 11.4746 25.9728 11.606 26.3827L12.5582 26.0772ZM18.8333 29.081C18.4388 29.0251 16.9954 28.7856 15.5676 28.2753C14.8532 28.02 14.1638 27.7042 13.616 27.3234C13.0638 26.9397 12.7009 26.5218 12.5582 26.0772L11.606 26.3827C11.8427 27.1204 12.4019 27.6974 13.0453 28.1446C13.693 28.5947 14.4725 28.9459 15.231 29.2169C16.7488 29.7594 18.2665 30.0107 18.693 30.0711L18.8333 29.081ZM18.7245 28.1691C18.6214 28.5899 18.5462 28.8957 18.4822 29.0963C18.4668 29.1444 18.4537 29.1813 18.4426 29.209C18.4311 29.2379 18.425 29.2487 18.4254 29.2481C18.4259 29.2473 18.4303 29.2397 18.4392 29.2282C18.4478 29.2171 18.4649 29.1967 18.4921 29.1743C18.5497 29.1267 18.6707 29.058 18.8333 29.081L18.693 30.0711C18.8874 30.0987 19.0398 30.0189 19.129 29.9453C19.2103 29.8781 19.2614 29.8001 19.2909 29.7489C19.3514 29.6444 19.3975 29.5171 19.4348 29.4005C19.5119 29.1588 19.5967 28.8117 19.6958 28.407L18.7245 28.1691ZM24.5232 16.3521C20.5309 20.7784 19.2896 25.8624 18.7245 28.1691L19.6958 28.407C20.2573 26.115 21.4536 21.2484 25.2658 17.0219L24.5232 16.3521ZM43.0803 9.07469C35.6977 8.20345 28.354 12.1049 24.5232 16.3521L25.2658 17.0219C28.9294 12.96 35.9703 9.24255 42.9631 10.0678L43.0803 9.07469ZM64.1212 29.2775C64.6103 29.1739 64.6103 29.1736 64.6102 29.1733C64.6102 29.173 64.6101 29.1726 64.61 29.1722C64.6098 29.1714 64.6096 29.1703 64.6093 29.1689C64.6087 29.1662 64.6079 29.1624 64.6068 29.1575C64.6047 29.1478 64.6016 29.134 64.5975 29.116C64.5893 29.0801 64.5772 29.0278 64.5607 28.9603C64.5279 28.8254 64.4778 28.6292 64.4081 28.3801C64.2688 27.8819 64.0508 27.1713 63.7347 26.3136C63.103 24.5993 62.0768 22.2911 60.4977 19.9158C57.3363 15.1604 51.945 10.1209 43.0803 9.07469L42.9631 10.0678C51.4579 11.0703 56.6165 15.8839 59.6649 20.4694C61.1907 22.7646 62.1845 24.9988 62.7964 26.6594C63.1022 27.4891 63.3121 28.174 63.4451 28.6495C63.5116 28.8872 63.5588 29.0724 63.5892 29.197C63.6043 29.2594 63.6153 29.3066 63.6224 29.3376C63.6259 29.3531 63.6284 29.3645 63.63 29.3718C63.6308 29.3755 63.6314 29.3781 63.6317 29.3796C63.6319 29.3804 63.632 29.3809 63.6321 29.3812C63.6321 29.3813 63.6321 29.3813 63.6321 29.3813C63.6321 29.3813 63.632 29.3811 64.1212 29.2775ZM74.5292 28.4206C73.8342 28.3689 71.1996 28.4612 68.7926 28.5621C67.5772 28.6131 66.4032 28.6671 65.5331 28.7083C65.098 28.7289 64.7388 28.7464 64.4884 28.7587C64.3632 28.7648 64.2651 28.7697 64.1984 28.773C64.165 28.7747 64.1394 28.776 64.1222 28.7768C64.1136 28.7772 64.1071 28.7776 64.1027 28.7778C64.1005 28.7779 64.0988 28.778 64.0977 28.778C64.0972 28.7781 64.0968 28.7781 64.0965 28.7781C64.0963 28.7781 64.0962 28.7781 64.0962 28.7781C64.0961 28.7781 64.096 28.7781 64.1212 29.2775C64.1463 29.7769 64.1464 29.7769 64.1464 29.7769C64.1465 29.7769 64.1466 29.7769 64.1467 29.7768C64.147 29.7768 64.1474 29.7768 64.148 29.7768C64.149 29.7767 64.1507 29.7766 64.1528 29.7765C64.1572 29.7763 64.1637 29.776 64.1722 29.7756C64.1893 29.7747 64.2148 29.7734 64.2481 29.7718C64.3146 29.7685 64.4124 29.7636 64.5374 29.7575C64.7874 29.7452 65.146 29.7278 65.5804 29.7072C66.4494 29.666 67.6215 29.6121 68.8345 29.5612C71.2842 29.4585 73.8351 29.3717 74.455 29.4178L74.5292 28.4206ZM77.6499 31.0531C77.5439 30.3568 77.126 29.727 76.5755 29.2656C76.0221 28.8017 75.3004 28.478 74.5292 28.4206L74.455 29.4178C74.9988 29.4583 75.5254 29.6902 75.9331 30.032C76.3438 30.3762 76.6002 30.8021 76.6613 31.2036L77.6499 31.0531ZM75.4474 35.0691C76.6718 34.6954 77.311 33.9949 77.5801 33.1796C77.8341 32.4098 77.7335 31.6028 77.6499 31.0531L76.6613 31.2036C76.7447 31.7518 76.8025 32.3448 76.6304 32.8662C76.4734 33.342 76.1019 33.8238 75.1555 34.1126L75.4474 35.0691ZM42.6168 37.7929C48.6967 37.5392 56.6141 36.9445 63.1424 36.3728C66.4073 36.0868 69.3272 35.8064 71.499 35.5769C72.5846 35.4622 73.4852 35.36 74.1493 35.276C74.4811 35.2341 74.7566 35.1963 74.9678 35.1635C75.1659 35.1328 75.3406 35.1017 75.4474 35.0691L75.1555 34.1126C75.1555 34.1126 75.1532 34.1133 75.1479 34.1147C75.1427 34.116 75.1357 34.1177 75.1266 34.1198C75.1083 34.124 75.0843 34.129 75.0539 34.1348C74.9931 34.1464 74.9135 34.16 74.8144 34.1754C74.6164 34.2061 74.3514 34.2425 74.0239 34.2839C73.3694 34.3667 72.4764 34.4681 71.3939 34.5825C69.2295 34.8112 66.3157 35.091 63.0552 35.3766C56.5327 35.9478 48.6326 36.541 42.5752 36.7937L42.6168 37.7929ZM8.84936 35.3114C9.56072 35.5171 11.2761 35.8033 13.5952 36.1088C15.9308 36.4164 18.9174 36.7483 22.1989 37.0399C28.7573 37.6229 36.516 38.0474 42.6168 37.7929L42.5752 36.7937C36.5387 37.0456 28.8303 36.6254 22.2874 36.0439C19.0183 35.7533 16.0458 35.4229 13.7258 35.1173C11.3892 34.8096 9.75243 34.5315 9.12707 34.3508L8.84936 35.3114ZM40.7269 14.8943C34.0602 14.8974 30.1261 18.4925 27.8816 22.055C26.7626 23.8312 26.0593 25.6031 25.6355 26.9289C25.4234 27.5926 25.2806 28.1468 25.1905 28.5369C25.1454 28.7321 25.1135 28.8863 25.0927 28.9929C25.0822 29.0462 25.0746 29.0876 25.0694 29.1163C25.0669 29.1306 25.0649 29.1418 25.0636 29.1496C25.0629 29.1535 25.0624 29.1567 25.062 29.1589C25.0618 29.1601 25.0616 29.161 25.0615 29.1617C25.0615 29.162 25.0614 29.1624 25.0614 29.1626C25.0613 29.1629 25.0613 29.1632 25.5547 29.2443C26.048 29.3254 26.048 29.3256 26.048 29.3257C26.048 29.3257 26.048 29.3257 26.048 29.3257C26.048 29.3255 26.0481 29.3252 26.0482 29.3247C26.0483 29.3236 26.0487 29.3217 26.0491 29.3189C26.0501 29.3135 26.0516 29.3048 26.0537 29.2929C26.058 29.2692 26.0647 29.2328 26.0741 29.1847C26.0929 29.0885 26.1225 28.9454 26.1648 28.7619C26.2496 28.3949 26.3853 27.8676 26.588 27.2333C26.994 25.9631 27.6657 24.2737 28.7277 22.5881C30.8453 19.227 34.4975 15.8972 40.7274 15.8943L40.7269 14.8943ZM57.0797 28.7376C57.5638 28.6123 57.5637 28.612 57.5636 28.6117C57.5636 28.6115 57.5635 28.6112 57.5634 28.6108C57.5632 28.6101 57.563 28.6092 57.5627 28.6081C57.5621 28.6059 57.5613 28.6029 57.5603 28.5991C57.5583 28.5916 57.5554 28.5808 57.5516 28.567C57.544 28.5393 57.5328 28.4994 57.5179 28.4479C57.4879 28.3451 57.4429 28.1964 57.3812 28.0082C57.2578 27.6321 57.0678 27.0979 56.7992 26.4583C56.2626 25.1805 55.4092 23.4744 54.1412 21.7658C51.6007 18.3424 47.3779 14.8913 40.7269 14.8943L40.7274 15.8943C46.973 15.8915 50.9265 19.1119 53.3382 22.3617C54.5462 23.9896 55.3628 25.6205 55.8772 26.8455C56.1342 27.4573 56.3149 27.9659 56.4309 28.3198C56.4889 28.4967 56.5307 28.6347 56.5577 28.7274C56.5712 28.7738 56.581 28.8088 56.5873 28.8316C56.5904 28.8431 56.5927 28.8515 56.5941 28.8567C56.5948 28.8593 56.5952 28.8612 56.5955 28.8622C56.5957 28.8627 56.5957 28.863 56.5958 28.8632C56.5958 28.8632 56.5958 28.8632 56.5958 28.8632C56.5957 28.8631 56.5957 28.8629 57.0797 28.7376ZM40.7272 30.2452C42.2236 30.2452 46.3331 29.9915 50.0436 29.7402C51.9043 29.6142 53.6726 29.4882 54.9757 29.3937C55.6273 29.3465 56.1626 29.3071 56.535 29.2795C56.7212 29.2657 56.8667 29.2549 56.9657 29.2475C57.0152 29.2438 57.0531 29.241 57.0786 29.2391C57.0913 29.2381 57.101 29.2374 57.1074 29.2369C57.1107 29.2367 57.1131 29.2365 57.1148 29.2364C57.1156 29.2363 57.1162 29.2363 57.1166 29.2362C57.1168 29.2362 57.117 29.2362 57.1171 29.2362C57.1172 29.2362 57.1172 29.2362 57.0797 28.7376C57.0423 28.239 57.0422 28.239 57.0421 28.239C57.042 28.239 57.0419 28.239 57.0417 28.2391C57.0413 28.2391 57.0407 28.2391 57.0398 28.2392C57.0382 28.2393 57.0358 28.2395 57.0326 28.2397C57.0262 28.2402 57.0166 28.2409 57.0039 28.2419C56.9785 28.2438 56.9407 28.2466 56.8913 28.2503C56.7925 28.2577 56.6472 28.2685 56.4612 28.2823C56.0892 28.3098 55.5544 28.3491 54.9034 28.3963C53.6013 28.4908 51.8346 28.6166 49.976 28.7425C46.2478 28.995 42.1809 29.2452 40.7272 29.2452V30.2452ZM25.5547 29.2443C25.5342 29.7439 25.5342 29.7439 25.5343 29.7439C25.5344 29.7439 25.5346 29.7439 25.5348 29.7439C25.5351 29.7439 25.5357 29.744 25.5364 29.744C25.5379 29.744 25.5401 29.7441 25.5431 29.7443C25.549 29.7445 25.5578 29.7449 25.5694 29.7453C25.5927 29.7463 25.6272 29.7477 25.6723 29.7495C25.7626 29.7532 25.8954 29.7586 26.0655 29.7654C26.4056 29.7791 26.8947 29.7987 27.4908 29.8222C28.683 29.8691 30.3035 29.9318 32.0163 29.9944C35.4363 30.1195 39.2406 30.2452 40.7272 30.2452V29.2452C39.2635 29.2452 35.4815 29.1204 32.0529 28.9951C30.3413 28.9325 28.7218 28.8699 27.5302 28.823C26.9344 28.7995 26.4456 28.7799 26.1057 28.7662C25.9358 28.7594 25.8031 28.754 25.7129 28.7503C25.6679 28.7485 25.6334 28.7471 25.6102 28.7462C25.5986 28.7457 25.5898 28.7453 25.584 28.7451C25.581 28.745 25.5788 28.7449 25.5773 28.7448C25.5766 28.7448 25.576 28.7448 25.5757 28.7447C25.5755 28.7447 25.5754 28.7447 25.5753 28.7447C25.5752 28.7447 25.5751 28.7447 25.5547 29.2443Z" fill="black"/>
<path d="M41.7122 54.8866C26.5397 55.1399 18.8691 38.1653 18.8691 38.1653L26.2025 38.5875C26.2025 38.5875 32.693 48.975 41.7122 48.3839C50.7314 47.7927 54.6931 42.05 54.6931 42.05L62.4479 41.6278C62.4479 41.6278 56.8847 54.6332 41.7122 54.8866Z" fill="#822D89" stroke="black"/>
<path d="M64.208 3.86508C63.2815 3.00456 62.5762 0.5 62.5762 0.5C62.5762 0.5 61.9997 2.98977 61.159 3.95403C60.2685 4.97547 57.6436 5.98851 57.6436 5.98851C57.6436 5.98851 60.3041 6.31747 61.2552 7.15072C62.2482 8.0207 62.9354 10.7623 62.9354 10.7623C62.9354 10.7623 63.7658 7.94957 64.759 6.93117C65.5921 6.07683 67.868 5.27378 67.868 5.27378C67.868 5.27378 65.1754 4.76354 64.208 3.86508Z" fill="#822D89" stroke="black"/>
<path d="M30.8291 59.6029C29.9026 58.7423 29.1973 56.2378 29.1973 56.2378C29.1973 56.2378 28.6208 58.7276 27.7801 59.6918C26.8896 60.7133 24.2647 61.7263 24.2647 61.7263C24.2647 61.7263 26.9252 62.0553 27.8763 62.8885C28.8693 63.7585 29.5565 66.5001 29.5565 66.5001C29.5565 66.5001 30.3869 63.6874 31.3801 62.669C32.2132 61.8146 34.4891 61.0116 34.4891 61.0116C34.4891 61.0116 31.7965 60.5013 30.8291 59.6029Z" fill="#822D89" stroke="black"/>
<path fill-rule="evenodd" clip-rule="evenodd" d="M85.2747 26.0529L79.7475 28.775C79.7475 28.775 78.2549 27.6831 76.6582 26.4339C75.0614 25.1846 73.0652 24.8352 73.0652 24.8352C73.0652 24.8352 76.7209 23.4716 79.1219 23.6638C81.6911 23.8696 85.2747 26.0529 85.2747 26.0529ZM79.905 32.8381L86.2797 34.2643C86.2797 34.2643 84.2355 36.4588 82.5813 37.3565C80.0578 38.726 75.4941 38.6772 74.8369 38.6626C75.1962 38.5321 76.5737 37.7519 77.8272 35.9859C79.3487 33.8423 79.905 32.8381 79.905 32.8381ZM74.7572 38.6605C74.7298 38.6887 74.7601 38.6905 74.8369 38.6626C74.7848 38.6614 74.7572 38.6605 74.7572 38.6605ZM78.4087 28.9399L79.5051 29.5703C79.5051 29.5703 81.339 28.737 82.635 28.0791C83.9309 27.4212 86.1422 26.2012 86.1422 26.2012L85.5274 25.3413C85.5274 25.3413 88.9817 23.7251 95.317 24.1354C101.652 24.5458 105.105 27.7777 105.105 27.7777C105.105 27.7777 103.309 31.1459 97.1246 33.3536C90.9399 35.5614 86.6964 34.8934 86.6964 34.8934L87.0959 33.9936C87.0959 33.9936 85.3307 33.4499 83.5747 32.9815C82.1153 32.5922 79.8332 32.2516 79.8332 32.2516L78.9215 33.1294C78.9215 33.1294 78.1834 31.9563 78.0794 31.1068C77.9754 30.2573 78.4087 28.9399 78.4087 28.9399ZM92.6467 30.8707C93.571 30.7568 94.2285 29.9141 94.1152 28.9884C94.0019 28.0627 93.1608 27.4046 92.2365 27.5185C91.3121 27.6324 90.6547 28.4751 90.768 29.4008C90.8813 30.3264 91.7224 30.9845 92.6467 30.8707ZM89.4402 29.6487C89.5138 30.2504 89.0865 30.7982 88.4857 30.8722C87.8849 30.9462 87.3381 30.5184 87.2645 29.9167C87.1909 29.315 87.6182 28.7673 88.219 28.6932C88.8198 28.6192 89.3665 29.047 89.4402 29.6487ZM96.6847 29.8636C97.2855 29.7895 97.7128 29.2418 97.6392 28.6401C97.5656 28.0384 97.0188 27.6106 96.418 27.6846C95.8172 27.7586 95.3899 28.3064 95.4635 28.9081C95.5371 29.5098 96.0839 29.9376 96.6847 29.8636Z" fill="#822D89"/>
<path d="M79.7475 28.775L79.4522 29.1786L79.6965 29.3574L79.9682 29.2236L79.7475 28.775ZM85.2747 26.0529L85.4954 26.5014L86.3121 26.0993L85.535 25.6258L85.2747 26.0529ZM76.6582 26.4339L76.35 26.8278L76.35 26.8278L76.6582 26.4339ZM73.0652 24.8352L72.8906 24.3667L71.1653 25.0103L72.9788 25.3277L73.0652 24.8352ZM79.1219 23.6638L79.0818 24.1623L79.0818 24.1623L79.1219 23.6638ZM86.2797 34.2643L86.6454 34.605L87.24 33.9667L86.389 33.7763L86.2797 34.2643ZM79.905 32.8381L80.0144 32.3502L79.6491 32.2685L79.4677 32.596L79.905 32.8381ZM82.5813 37.3565L82.343 36.917L82.343 36.917L82.5813 37.3565ZM77.8272 35.9859L78.2349 36.2752L78.2349 36.2752L77.8272 35.9859ZM74.7572 38.6605L74.7745 38.1608L74.5532 38.1532L74.3988 38.312L74.7572 38.6605ZM79.5051 29.5703L79.2557 30.0039L79.4781 30.1317L79.7117 30.0256L79.5051 29.5703ZM78.4087 28.9399L78.6581 28.5064L78.1257 28.2003L77.9338 28.7839L78.4087 28.9399ZM82.635 28.0791L82.4088 27.6333L82.4088 27.6333L82.635 28.0791ZM86.1422 26.2012L86.3836 26.639L86.8758 26.3674L86.5489 25.9102L86.1422 26.2012ZM85.5274 25.3413L85.3157 24.8884L84.771 25.1433L85.1206 25.6323L85.5274 25.3413ZM95.317 24.1354L95.2844 24.6344L95.2844 24.6344L95.317 24.1354ZM105.105 27.7777L105.547 28.0128L105.727 27.6744L105.447 27.4125L105.105 27.7777ZM97.1246 33.3536L96.9567 32.8827L96.9567 32.8827L97.1246 33.3536ZM86.6964 34.8934L86.2395 34.6906L85.9751 35.286L86.6185 35.3873L86.6964 34.8934ZM87.0959 33.9936L87.5528 34.1964L87.7814 33.6815L87.2432 33.5157L87.0959 33.9936ZM83.5747 32.9815L83.7037 32.4983L83.7037 32.4983L83.5747 32.9815ZM79.8332 32.2516L79.9072 31.7571L79.6639 31.7208L79.4866 31.8915L79.8332 32.2516ZM78.9215 33.1294L78.4983 33.3959L78.8254 33.9158L79.2681 33.4896L78.9215 33.1294ZM78.0794 31.1068L78.5757 31.0458L78.0794 31.1068ZM94.1152 28.9884L93.6189 29.0494L93.6189 29.0494L94.1152 28.9884ZM92.6467 30.8707L92.5858 30.3744L92.6467 30.8707ZM92.2365 27.5185L92.1755 27.0222L92.2365 27.5185ZM90.768 29.4008L90.2717 29.4617L90.2717 29.4617L90.768 29.4008ZM88.4857 30.8722L88.5466 31.3684L88.5466 31.3684L88.4857 30.8722ZM89.4402 29.6487L88.9439 29.7097L89.4402 29.6487ZM87.2645 29.9167L87.7608 29.8558L87.2645 29.9167ZM88.219 28.6932L88.2799 29.1895L88.2799 29.1895L88.219 28.6932ZM97.6392 28.6401L98.1355 28.5791L97.6392 28.6401ZM96.6847 29.8636L96.7456 30.3598L96.7456 30.3598L96.6847 29.8636ZM95.4635 28.9081L95.9598 28.8471L95.4635 28.9081ZM79.9682 29.2236L85.4954 26.5014L85.054 25.6043L79.5268 28.3264L79.9682 29.2236ZM76.35 26.8278C77.152 27.4552 77.9272 28.0427 78.5017 28.4731C78.7891 28.6884 79.0264 28.8646 79.192 28.987C79.2748 29.0483 79.3397 29.096 79.384 29.1286C79.4061 29.1449 79.4231 29.1573 79.4346 29.1657C79.4403 29.1699 79.4447 29.1731 79.4476 29.1753C79.4491 29.1764 79.4502 29.1772 79.451 29.1778C79.4514 29.178 79.4517 29.1783 79.4519 29.1784C79.452 29.1785 79.452 29.1785 79.4521 29.1786C79.4521 29.1786 79.4521 29.1786 79.4521 29.1786C79.4522 29.1786 79.4522 29.1786 79.7475 28.775C80.0428 28.3714 80.0428 28.3714 80.0428 28.3714C80.0428 28.3714 80.0427 28.3714 80.0427 28.3714C80.0427 28.3713 80.0426 28.3713 80.0426 28.3712C80.0424 28.3711 80.0421 28.3709 80.0418 28.3707C80.0411 28.3702 80.0401 28.3694 80.0387 28.3684C80.0359 28.3663 80.0317 28.3632 80.0261 28.3592C80.0149 28.351 79.9983 28.3387 79.9765 28.3227C79.9329 28.2907 79.8687 28.2434 79.7866 28.1827C79.6225 28.0614 79.3869 27.8865 79.1015 27.6727C78.5305 27.2449 77.7611 26.6618 76.9663 26.04L76.35 26.8278ZM73.0652 24.8352C72.9788 25.3277 72.9787 25.3277 72.9786 25.3277C72.9785 25.3277 72.9784 25.3277 72.9784 25.3277C72.9783 25.3277 72.9782 25.3276 72.9782 25.3276C72.9782 25.3276 72.9782 25.3276 72.9784 25.3277C72.9787 25.3277 72.9796 25.3279 72.9808 25.3281C72.9834 25.3286 72.9879 25.3294 72.9941 25.3306C73.0065 25.333 73.026 25.3368 73.0521 25.3422C73.1043 25.3531 73.1825 25.3703 73.2822 25.3948C73.4817 25.444 73.7659 25.5225 74.0982 25.6383C74.7666 25.8712 75.6097 26.2486 76.35 26.8278L76.9663 26.04C76.1098 25.3699 75.1565 24.9479 74.4276 24.6939C74.0612 24.5662 73.7465 24.4792 73.5219 24.4238C73.4094 24.3961 73.3192 24.3762 73.256 24.3631C73.2244 24.3565 73.1995 24.3516 73.1819 24.3483C73.1731 24.3466 73.1661 24.3453 73.161 24.3444C73.1585 24.3439 73.1564 24.3435 73.1549 24.3432C73.1541 24.3431 73.1534 24.343 73.1529 24.3429C73.1526 24.3428 73.1523 24.3428 73.1521 24.3428C73.152 24.3427 73.1519 24.3427 73.1518 24.3427C73.1517 24.3427 73.1516 24.3427 73.0652 24.8352ZM79.1621 23.1654C77.8727 23.0622 76.2897 23.3745 75.0671 23.6936C74.4478 23.8552 73.9057 24.0228 73.5181 24.1501C73.3242 24.2137 73.1686 24.2674 73.0608 24.3054C73.007 24.3244 72.9651 24.3395 72.9363 24.35C72.9219 24.3552 72.9108 24.3593 72.9032 24.3621C72.8993 24.3635 72.8964 24.3646 72.8943 24.3654C72.8932 24.3657 72.8924 24.3661 72.8918 24.3663C72.8915 24.3664 72.8912 24.3665 72.891 24.3666C72.8909 24.3666 72.8908 24.3666 72.8908 24.3666C72.8907 24.3667 72.8906 24.3667 73.0652 24.8352C73.2397 25.3037 73.2397 25.3037 73.2396 25.3037C73.2396 25.3037 73.2396 25.3037 73.2396 25.3037C73.2397 25.3037 73.2398 25.3037 73.2399 25.3036C73.2402 25.3035 73.2407 25.3033 73.2414 25.3031C73.2428 25.3025 73.2451 25.3017 73.2483 25.3005C73.2546 25.2982 73.2644 25.2946 73.2773 25.2899C73.3033 25.2805 73.3423 25.2664 73.393 25.2485C73.4946 25.2127 73.6433 25.1614 73.8296 25.1002C74.2026 24.9778 74.7244 24.8165 75.3192 24.6612C76.5247 24.3466 77.9701 24.0733 79.0818 24.1623L79.1621 23.1654ZM85.2747 26.0529C85.535 25.6258 85.5349 25.6258 85.5348 25.6257C85.5348 25.6257 85.5347 25.6256 85.5346 25.6256C85.5344 25.6255 85.5341 25.6253 85.5338 25.6251C85.5333 25.6248 85.5324 25.6243 85.5314 25.6237C85.5294 25.6224 85.5265 25.6207 85.5227 25.6184C85.5152 25.6139 85.5043 25.6073 85.4902 25.5989C85.462 25.5821 85.4208 25.5577 85.3678 25.5267C85.2618 25.4649 85.1084 25.3769 84.9166 25.2709C84.5334 25.059 83.9952 24.7744 83.3744 24.4829C82.1491 23.9074 80.5419 23.2759 79.1621 23.1654L79.0818 24.1623C80.2711 24.2575 81.7404 24.8205 82.9491 25.3881C83.5454 25.6682 84.0636 25.9422 84.4326 26.1462C84.617 26.2481 84.7636 26.3322 84.8636 26.3906C84.9136 26.4198 84.9519 26.4425 84.9775 26.4577C84.9902 26.4653 84.9998 26.4711 85.006 26.4748C85.0091 26.4767 85.0114 26.4781 85.0128 26.4789C85.0135 26.4794 85.014 26.4797 85.0143 26.4798C85.0144 26.4799 85.0145 26.48 85.0145 26.48C85.0145 26.48 85.0145 26.48 85.0145 26.48C85.0145 26.48 85.0145 26.4799 85.2747 26.0529ZM86.389 33.7763L80.0144 32.3502L79.7957 33.3261L86.1703 34.7522L86.389 33.7763ZM82.8196 37.796C83.7041 37.316 84.6663 36.5072 85.3893 35.8416C85.7552 35.5047 86.0681 35.1968 86.2897 34.9729C86.4006 34.8608 86.4888 34.7696 86.5497 34.706C86.5801 34.6743 86.6037 34.6494 86.6198 34.6323C86.6279 34.6237 86.6341 34.6171 86.6384 34.6125C86.6406 34.6102 86.6422 34.6084 86.6434 34.6072C86.644 34.6066 86.6445 34.6061 86.6448 34.6057C86.645 34.6055 86.6451 34.6054 86.6452 34.6053C86.6453 34.6052 86.6453 34.6051 86.6453 34.6051C86.6454 34.6051 86.6454 34.605 86.2797 34.2643C85.9139 33.9235 85.914 33.9235 85.914 33.9235C85.914 33.9235 85.914 33.9235 85.914 33.9235C85.9139 33.9235 85.9139 33.9235 85.9138 33.9236C85.9137 33.9238 85.9134 33.9241 85.913 33.9245C85.9122 33.9254 85.9109 33.9268 85.9091 33.9287C85.9056 33.9325 85.9001 33.9383 85.8928 33.946C85.8782 33.9615 85.8563 33.9846 85.8276 34.0146C85.7701 34.0746 85.6858 34.1618 85.5792 34.2695C85.3658 34.4851 85.0642 34.7819 84.7123 35.1059C83.9997 35.762 83.1128 36.4993 82.343 36.917L82.8196 37.796ZM74.8256 39.1625C75.1649 39.17 76.4928 39.1861 78.0599 39.026C79.6113 38.8675 81.4664 38.5303 82.8196 37.796L82.343 36.917C81.1727 37.5521 79.4843 37.8753 77.9587 38.0311C76.4487 38.1854 75.1661 38.1697 74.8482 38.1627L74.8256 39.1625ZM77.4196 35.6966C76.2172 37.3906 74.9184 38.1011 74.6664 38.1926L75.0074 39.1326C75.4741 38.9631 76.9302 38.1133 78.2349 36.2752L77.4196 35.6966ZM79.905 32.8381C79.4677 32.596 79.4677 32.5959 79.4678 32.5959C79.4678 32.5959 79.4678 32.5958 79.4678 32.5958C79.4678 32.5957 79.4678 32.5957 79.4679 32.5957C79.4679 32.5957 79.4678 32.5957 79.4678 32.5958C79.4677 32.596 79.4674 32.5965 79.467 32.5972C79.4663 32.5986 79.4649 32.6009 79.463 32.6043C79.4592 32.6111 79.4531 32.6218 79.4447 32.6365C79.4278 32.6659 79.4014 32.7113 79.3647 32.773C79.2913 32.8964 79.1767 33.0848 79.0146 33.3404C78.6902 33.8516 78.1756 34.6313 77.4196 35.6966L78.2349 36.2752C79.0003 35.1968 79.5246 34.4027 79.8588 33.8759C80.0259 33.6125 80.1455 33.4159 80.224 33.2841C80.2632 33.2181 80.2921 33.1683 80.3116 33.1345C80.3213 33.1175 80.3287 33.1046 80.3338 33.0956C80.3363 33.0911 80.3383 33.0876 80.3397 33.085C80.3404 33.0837 80.341 33.0827 80.3414 33.0819C80.3417 33.0816 80.3418 33.0812 80.342 33.081C80.3421 33.0808 80.3421 33.0807 80.3422 33.0806C80.3422 33.0805 80.3422 33.0805 80.3423 33.0805C80.3423 33.0804 80.3423 33.0803 79.905 32.8381ZM74.3988 38.312C74.3814 38.3299 74.3513 38.3629 74.323 38.4092C74.3008 38.4455 74.2405 38.5521 74.2479 38.7017C74.2577 38.8979 74.3747 39.0445 74.5073 39.1181C74.6099 39.1751 74.7047 39.1811 74.7401 39.1823C74.8191 39.1851 74.8846 39.1693 74.9096 39.163C74.9446 39.1542 74.9781 39.1432 75.0074 39.1326L74.6664 38.1926C74.6573 38.1959 74.6582 38.1952 74.6668 38.193C74.6712 38.1919 74.6815 38.1894 74.6963 38.1872C74.709 38.1853 74.7378 38.1815 74.7759 38.1829C74.8043 38.1839 74.8939 38.1887 74.993 38.2437C75.122 38.3154 75.2371 38.4591 75.2466 38.6516C75.2539 38.7975 75.1951 38.8995 75.1762 38.9304C75.1512 38.9713 75.1262 38.9981 75.1156 39.009L74.3988 38.312ZM74.8482 38.1627C74.8232 38.1621 74.8043 38.1616 74.7919 38.1613C74.7857 38.1611 74.7811 38.161 74.7782 38.1609C74.7767 38.1608 74.7757 38.1608 74.7751 38.1608C74.7748 38.1608 74.7746 38.1608 74.7745 38.1608C74.7744 38.1608 74.7744 38.1608 74.7744 38.1608C74.7744 38.1608 74.7744 38.1608 74.7744 38.1608C74.7744 38.1608 74.7744 38.1608 74.7745 38.1608C74.7745 38.1608 74.7745 38.1608 74.7745 38.1608C74.7745 38.1608 74.7745 38.1608 74.7745 38.1608C74.7745 38.1608 74.7745 38.1608 74.7572 38.6605C74.7399 39.1602 74.7399 39.1602 74.7399 39.1602C74.7399 39.1602 74.7399 39.1602 74.7399 39.1602C74.74 39.1602 74.74 39.1602 74.74 39.1602C74.74 39.1602 74.74 39.1602 74.74 39.1602C74.7401 39.1602 74.7401 39.1602 74.7402 39.1602C74.7403 39.1602 74.7404 39.1603 74.7406 39.1603C74.7409 39.1603 74.7414 39.1603 74.7419 39.1603C74.743 39.1603 74.7445 39.1604 74.7465 39.1604C74.7504 39.1606 74.7559 39.1607 74.7631 39.1609C74.7775 39.1613 74.7985 39.1619 74.8256 39.1625L74.8482 38.1627ZM79.7544 29.1368L78.6581 28.5064L78.1594 29.3734L79.2557 30.0039L79.7544 29.1368ZM82.4088 27.6333C81.768 27.9585 80.9912 28.3287 80.3722 28.6186C80.0632 28.7633 79.7945 28.8876 79.6031 28.9756C79.5074 29.0196 79.4311 29.0546 79.3788 29.0785C79.3526 29.0904 79.3325 29.0996 79.3189 29.1058C79.3121 29.1089 79.3069 29.1113 79.3035 29.1128C79.3018 29.1136 79.3005 29.1142 79.2996 29.1146C79.2992 29.1148 79.2989 29.1149 79.2987 29.115C79.2986 29.115 79.2985 29.1151 79.2985 29.1151C79.2985 29.1151 79.2984 29.1151 79.2984 29.1151C79.2984 29.1151 79.2984 29.1151 79.5051 29.5703C79.7117 30.0256 79.7118 30.0256 79.7118 30.0256C79.7118 30.0255 79.7118 30.0255 79.7119 30.0255C79.7119 30.0255 79.712 30.0254 79.7121 30.0254C79.7124 30.0253 79.7127 30.0251 79.7132 30.0249C79.7141 30.0245 79.7155 30.0239 79.7173 30.0231C79.7209 30.0214 79.7262 30.019 79.7331 30.0158C79.747 30.0095 79.7675 30.0002 79.794 29.988C79.8471 29.9638 79.9241 29.9285 80.0206 29.8841C80.2136 29.7953 80.4844 29.6701 80.7959 29.5243C81.4178 29.233 82.2059 28.8575 82.8611 28.525L82.4088 27.6333ZM86.1422 26.2012C85.9008 25.7634 85.9008 25.7634 85.9008 25.7634C85.9008 25.7634 85.9008 25.7634 85.9007 25.7634C85.9007 25.7635 85.9006 25.7635 85.9005 25.7636C85.9002 25.7637 85.8998 25.7639 85.8993 25.7642C85.8982 25.7648 85.8967 25.7657 85.8946 25.7668C85.8904 25.7691 85.8842 25.7726 85.876 25.7771C85.8596 25.7861 85.8353 25.7995 85.8039 25.8168C85.7411 25.8513 85.6499 25.9014 85.5364 25.9636C85.3093 26.088 84.9931 26.2606 84.6366 26.4538C83.9221 26.8409 83.0504 27.3076 82.4088 27.6333L82.8611 28.525C83.5155 28.1928 84.3974 27.7205 85.1126 27.3331C85.4708 27.139 85.7884 26.9656 86.0165 26.8406C86.1305 26.7781 86.2222 26.7278 86.2854 26.693C86.317 26.6756 86.3415 26.6621 86.3581 26.653C86.3664 26.6484 86.3728 26.6449 86.377 26.6426C86.3792 26.6414 86.3808 26.6405 86.3819 26.6399C86.3824 26.6396 86.3828 26.6394 86.3831 26.6392C86.3833 26.6391 86.3834 26.6391 86.3834 26.639C86.3835 26.639 86.3835 26.639 86.3835 26.639C86.3835 26.639 86.3836 26.639 86.1422 26.2012ZM85.1206 25.6323L85.7355 26.4922L86.5489 25.9102L85.9341 25.0504L85.1206 25.6323ZM95.3495 23.6364C92.1332 23.4281 89.6398 23.7338 87.9424 24.0955C87.094 24.2763 86.4448 24.471 86.004 24.6223C85.7836 24.6979 85.6153 24.7627 85.5002 24.8094C85.4427 24.8328 85.3984 24.8517 85.3676 24.8651C85.3522 24.8719 85.3402 24.8773 85.3315 24.8812C85.3272 24.8831 85.3237 24.8847 85.321 24.8859C85.3197 24.8866 85.3186 24.8871 85.3177 24.8875C85.3173 24.8877 85.3169 24.8879 85.3165 24.888C85.3164 24.8881 85.3161 24.8882 85.3161 24.8883C85.3158 24.8884 85.3157 24.8884 85.5274 25.3413C85.7391 25.7942 85.7389 25.7943 85.7388 25.7944C85.7387 25.7944 85.7386 25.7945 85.7385 25.7945C85.7384 25.7946 85.7383 25.7946 85.7383 25.7946C85.7382 25.7946 85.7384 25.7946 85.7387 25.7944C85.7395 25.794 85.741 25.7933 85.7434 25.7922C85.7482 25.7901 85.7564 25.7864 85.7678 25.7814C85.7907 25.7714 85.8268 25.756 85.8761 25.736C85.9747 25.6959 86.1257 25.6376 86.3282 25.5682C86.733 25.4292 87.3434 25.2455 88.1504 25.0735C89.764 24.7297 92.1655 24.4324 95.2844 24.6344L95.3495 23.6364ZM105.105 27.7777C105.447 27.4125 105.447 27.4124 105.447 27.4122C105.447 27.4121 105.446 27.4119 105.446 27.4118C105.446 27.4115 105.446 27.4112 105.445 27.4108C105.444 27.41 105.443 27.409 105.442 27.4079C105.44 27.4056 105.436 27.4025 105.432 27.3986C105.424 27.391 105.412 27.3803 105.397 27.3669C105.366 27.34 105.322 27.3019 105.265 27.2541C105.151 27.1585 104.983 27.0241 104.762 26.8627C104.321 26.5401 103.67 26.1093 102.817 25.6666C101.111 24.781 98.5973 23.8468 95.3495 23.6364L95.2844 24.6344C98.3719 24.8344 100.752 25.7214 102.356 26.5542C103.159 26.9708 103.767 27.3737 104.171 27.6698C104.374 27.8179 104.525 27.9391 104.624 28.0219C104.674 28.0633 104.71 28.095 104.733 28.1157C104.745 28.126 104.753 28.1335 104.759 28.1381C104.761 28.1404 104.763 28.142 104.764 28.1428C104.764 28.1432 104.764 28.1434 104.764 28.1434C104.764 28.1434 104.764 28.1433 104.764 28.1433C104.764 28.1432 104.764 28.1431 104.764 28.1431C104.764 28.143 104.764 28.1428 105.105 27.7777ZM97.2925 33.8245C100.448 32.6981 102.501 31.2692 103.772 30.1066C104.406 29.5259 104.844 29.0131 105.127 28.6401C105.268 28.4536 105.37 28.3021 105.438 28.1945C105.472 28.1408 105.498 28.098 105.516 28.0673C105.525 28.052 105.532 28.0397 105.537 28.0306C105.539 28.026 105.541 28.0222 105.543 28.0193C105.544 28.0178 105.545 28.0165 105.545 28.0154C105.545 28.0149 105.546 28.0144 105.546 28.014C105.546 28.0137 105.546 28.0135 105.546 28.0133C105.546 28.0131 105.547 28.0128 105.105 27.7777C104.664 27.5425 104.664 27.5423 104.664 27.5421C104.665 27.542 104.665 27.5418 104.665 27.5417C104.665 27.5415 104.665 27.5413 104.665 27.5411C104.665 27.5409 104.665 27.5408 104.665 27.541C104.665 27.5413 104.664 27.5423 104.663 27.5442C104.661 27.548 104.657 27.5548 104.652 27.5647C104.64 27.5845 104.621 27.6162 104.594 27.6589C104.54 27.7442 104.453 27.8731 104.329 28.0368C104.082 28.3643 103.684 28.8316 103.097 29.3689C101.923 30.4423 99.9858 31.8014 96.9567 32.8827L97.2925 33.8245ZM86.6964 34.8934C86.6185 35.3873 86.6186 35.3873 86.6189 35.3874C86.6189 35.3874 86.6192 35.3874 86.6194 35.3874C86.6197 35.3875 86.6201 35.3876 86.6206 35.3876C86.6216 35.3878 86.6229 35.388 86.6244 35.3882C86.6274 35.3887 86.6315 35.3893 86.6365 35.39C86.6467 35.3915 86.6609 35.3935 86.6792 35.396C86.7157 35.4008 86.7683 35.4074 86.8365 35.4148C86.9728 35.4297 87.1713 35.4479 87.4275 35.4625C87.9398 35.4916 88.6829 35.5063 89.6207 35.4505C91.4963 35.3391 94.1506 34.9461 97.2925 33.8245L96.9567 32.8827C93.9139 33.9689 91.3541 34.3458 89.5618 34.4523C88.6656 34.5055 87.9613 34.4911 87.4847 34.464C87.2464 34.4505 87.0651 34.4337 86.9452 34.4207C86.8852 34.4141 86.8406 34.4085 86.812 34.4047C86.7977 34.4028 86.7873 34.4013 86.781 34.4004C86.7779 34.3999 86.7757 34.3996 86.7746 34.3995C86.7741 34.3994 86.7738 34.3993 86.7737 34.3993C86.7737 34.3993 86.7737 34.3993 86.7738 34.3993C86.7739 34.3993 86.774 34.3994 86.7741 34.3994C86.7742 34.3994 86.7744 34.3994 86.6964 34.8934ZM86.639 33.7909L86.2395 34.6906L87.1533 35.0961L87.5528 34.1964L86.639 33.7909ZM83.4456 33.4646C84.318 33.6973 85.1939 33.9491 85.8524 34.1429C86.1815 34.2398 86.4559 34.322 86.6479 34.38C86.7438 34.409 86.8192 34.4319 86.8705 34.4476C86.8961 34.4554 86.9157 34.4614 86.9289 34.4655C86.9354 34.4675 86.9404 34.469 86.9437 34.47C86.9454 34.4705 86.9466 34.4709 86.9474 34.4712C86.9478 34.4713 86.9481 34.4714 86.9483 34.4714C86.9484 34.4715 86.9485 34.4715 86.9485 34.4715C86.9485 34.4715 86.9485 34.4715 86.9485 34.4715C86.9485 34.4715 86.9485 34.4715 87.0959 33.9936C87.2432 33.5157 87.2432 33.5157 87.2432 33.5157C87.2432 33.5157 87.2432 33.5157 87.2431 33.5157C87.2431 33.5157 87.243 33.5157 87.2428 33.5156C87.2426 33.5155 87.2423 33.5154 87.2418 33.5153C87.2409 33.515 87.2396 33.5146 87.2378 33.5141C87.2343 33.513 87.2292 33.5114 87.2224 33.5093C87.2089 33.5052 87.1888 33.4991 87.1628 33.4911C87.1106 33.4752 87.0344 33.452 86.9374 33.4227C86.7435 33.3641 86.4669 33.2812 86.1351 33.1835C85.4721 32.9884 84.5874 32.7341 83.7037 32.4983L83.4456 33.4646ZM79.8332 32.2516C79.7592 32.7462 79.7592 32.7462 79.7592 32.7462C79.7592 32.7462 79.7592 32.7462 79.7593 32.7462C79.7593 32.7462 79.7594 32.7462 79.7595 32.7462C79.7597 32.7462 79.7601 32.7463 79.7606 32.7464C79.7616 32.7465 79.7632 32.7468 79.7653 32.7471C79.7694 32.7477 79.7757 32.7487 79.784 32.7499C79.8007 32.7524 79.8255 32.7562 79.8577 32.7612C79.922 32.7711 80.0159 32.7858 80.1332 32.8046C80.3678 32.8423 80.6959 32.8966 81.069 32.9629C81.8191 33.0962 82.7373 33.2757 83.4456 33.4646L83.7037 32.4983C82.9527 32.298 82.0002 32.1125 81.2444 31.9782C80.8646 31.9107 80.5309 31.8555 80.2921 31.8172C80.1726 31.798 80.0768 31.783 80.0106 31.7728C79.9775 31.7677 79.9519 31.7638 79.9344 31.7612C79.9257 31.7598 79.919 31.7588 79.9144 31.7581C79.9121 31.7578 79.9104 31.7575 79.9092 31.7574C79.9086 31.7573 79.9081 31.7572 79.9078 31.7571C79.9076 31.7571 79.9075 31.7571 79.9074 31.7571C79.9074 31.7571 79.9073 31.7571 79.9073 31.7571C79.9073 31.7571 79.9072 31.7571 79.8332 32.2516ZM79.2681 33.4896L80.1799 32.6118L79.4866 31.8915L78.5748 32.7692L79.2681 33.4896ZM77.5831 31.1678C77.646 31.6815 77.8898 32.2511 78.0912 32.6585C78.1956 32.8697 78.2963 33.0522 78.371 33.1821C78.4084 33.2473 78.4395 33.2996 78.4616 33.3361C78.4727 33.3544 78.4815 33.3688 78.4877 33.3788C78.4908 33.3839 78.4933 33.3878 78.495 33.3907C78.4959 33.3921 78.4966 33.3933 78.4972 33.3941C78.4975 33.3946 78.4977 33.3949 78.4979 33.3952C78.498 33.3953 78.498 33.3955 78.4981 33.3956C78.4981 33.3956 78.4982 33.3957 78.4982 33.3957C78.4982 33.3958 78.4983 33.3959 78.9215 33.1294C79.3447 32.863 79.3447 32.863 79.3447 32.8631C79.3447 32.8631 79.3448 32.8631 79.3448 32.8631C79.3448 32.8632 79.3448 32.8632 79.3448 32.8632C79.3448 32.8632 79.3448 32.8631 79.3447 32.863C79.3445 32.8627 79.3442 32.8622 79.3437 32.8614C79.3426 32.8597 79.3409 32.857 79.3386 32.8532C79.334 32.8457 79.3268 32.834 79.3175 32.8186C79.2988 32.7876 79.2714 32.7417 79.238 32.6836C79.1711 32.567 79.0807 32.4032 78.9876 32.2149C78.794 31.8234 78.6168 31.3816 78.5757 31.0458L77.5831 31.1678ZM78.4087 28.9399C77.9338 28.7839 77.9338 28.7839 77.9338 28.784C77.9337 28.784 77.9337 28.7841 77.9337 28.7842C77.9337 28.7843 77.9336 28.7844 77.9336 28.7846C77.9335 28.7849 77.9333 28.7853 77.9332 28.7858C77.9328 28.7868 77.9324 28.7881 77.9319 28.7897C77.9309 28.7929 77.9294 28.7973 77.9276 28.803C77.924 28.8142 77.919 28.8303 77.9126 28.8507C77.9 28.8915 77.8825 28.9499 77.8618 29.0221C77.8207 29.1663 77.7671 29.3679 77.7167 29.5981C77.6194 30.0423 77.5203 30.654 77.5831 31.1678L78.5757 31.0458C78.5346 30.7101 78.6 30.2384 78.6935 29.8115C78.7384 29.6062 78.7866 29.4253 78.8235 29.296C78.8418 29.2314 78.8573 29.1802 78.868 29.1457C78.8733 29.1284 78.8775 29.1153 78.8801 29.1069C78.8815 29.1027 78.8825 29.0996 78.8831 29.0978C78.8834 29.0969 78.8836 29.0963 78.8837 29.096C78.8837 29.0958 78.8837 29.0957 78.8837 29.0957C78.8837 29.0957 78.8837 29.0958 78.8837 29.0958C78.8837 29.0958 78.8837 29.0959 78.8837 29.0959C78.8837 29.0959 78.8837 29.096 78.4087 28.9399ZM93.6189 29.0494C93.6987 29.7017 93.2354 30.2944 92.5858 30.3744L92.7076 31.367C93.9066 31.2192 94.7582 30.1265 94.6114 28.9274L93.6189 29.0494ZM92.2974 28.0148C92.9469 27.9347 93.5391 28.3972 93.6189 29.0494L94.6114 28.9274C94.4647 27.7282 93.3746 26.8745 92.1755 27.0222L92.2974 28.0148ZM91.2642 29.3398C91.1844 28.6875 91.6477 28.0948 92.2974 28.0148L92.1755 27.0222C90.9766 27.1699 90.125 28.2627 90.2717 29.4617L91.2642 29.3398ZM92.5858 30.3744C91.9363 30.4544 91.344 29.992 91.2642 29.3398L90.2717 29.4617C90.4185 30.6609 91.5085 31.5147 92.7076 31.367L92.5858 30.3744ZM88.5466 31.3684C89.422 31.2606 90.0435 30.4628 89.9365 29.5877L88.9439 29.7097C88.9841 30.038 88.7509 30.3357 88.4248 30.3759L88.5466 31.3684ZM86.7682 29.9777C86.8753 30.8529 87.671 31.4763 88.5466 31.3684L88.4248 30.3759C88.0987 30.4161 87.8009 30.1839 87.7608 29.8558L86.7682 29.9777ZM88.1581 28.197C87.2827 28.3048 86.6611 29.1026 86.7682 29.9777L87.7608 29.8558C87.7206 29.5274 87.9538 29.2297 88.2799 29.1895L88.1581 28.197ZM89.9365 29.5877C89.8293 28.7125 89.0337 28.0891 88.1581 28.197L88.2799 29.1895C88.6059 29.1494 88.9038 29.3815 88.9439 29.7097L89.9365 29.5877ZM97.1429 28.701C97.1831 29.0294 96.9499 29.3271 96.6238 29.3673L96.7456 30.3598C97.621 30.252 98.2425 29.4542 98.1355 28.5791L97.1429 28.701ZM96.4789 28.1809C96.8049 28.1407 97.1028 28.3729 97.1429 28.701L98.1355 28.5791C98.0284 27.7039 97.2327 27.0805 96.3571 27.1884L96.4789 28.1809ZM95.9598 28.8471C95.9196 28.5188 96.1528 28.2211 96.4789 28.1809L96.3571 27.1884C95.4817 27.2962 94.8602 28.094 94.9672 28.9691L95.9598 28.8471ZM96.6238 29.3673C96.2978 29.4074 95.9999 29.1753 95.9598 28.8471L94.9672 28.9691C95.0743 29.8443 95.87 30.4677 96.7456 30.3598L96.6238 29.3673Z" fill="black"/>
</svg>
